<svg xmlns="http://www.w3.org/2000/svg" width="256" height="256" viewBox="0 0 256 256" version="1.1"><path d="M 2.079 102.583 C 2.127 103.748, 2.364 103.985, 2.683 103.188 C 2.972 102.466, 2.936 101.603, 2.604 101.271 C 2.272 100.939, 2.036 101.529, 2.079 102.583 M 253.079 102.583 C 253.127 103.748, 253.364 103.985, 253.683 103.188 C 253.972 102.466, 253.936 101.603, 253.604 101.271 C 253.272 100.939, 253.036 101.529, 253.079 102.583 M 255.250 115.423 C 255.250 117.201, 255.590 117.810, 256.229 117.171 C 256.867 116.533, 256.867 115.584, 256.229 114.444 C 255.402 112.967, 255.250 113.120, 255.250 115.423 M 165.158 130 C 165.158 131.375, 165.385 131.938, 165.662 131.250 C 165.940 130.563, 165.940 129.438, 165.662 128.750 C 165.385 128.063, 165.158 128.625, 165.158 130 M 255.250 140.423 C 255.250 142.201, 255.590 142.810, 256.229 142.171 C 256.867 141.533, 256.867 140.584, 256.229 139.444 C 255.402 137.967, 255.250 138.120, 255.250 140.423 M 101.813 253.683 C 102.534 253.972, 103.397 253.936, 103.729 253.604 C 104.061 253.272, 103.471 253.036, 102.417 253.079 C 101.252 253.127, 101.015 253.364, 101.813 253.683 M 152.813 253.683 C 153.534 253.972, 154.397 253.936, 154.729 253.604 C 155.061 253.272, 154.471 253.036, 153.417 253.079 C 152.252 253.127, 152.015 253.364, 152.813 253.683" stroke="none" fill="#4c0c8c" fill-rule="evenodd"/><path d="M 114.831 0.502 C 114.644 0.690, 112.468 1.102, 109.995 1.419 C 107.523 1.735, 103.736 2.235, 101.579 2.528 C 98.319 2.972, 86.849 6.427, 81 8.728 C 80.175 9.052, 79.162 9.246, 78.750 9.159 C 78.338 9.071, 78 9.450, 78 10 C 78 10.550, 77.662 10.916, 77.250 10.814 C 76.279 10.574, 68.734 13.851, 68.035 14.816 C 67.741 15.223, 65.600 16.393, 63.277 17.417 C 60.955 18.441, 59.247 19.591, 59.483 19.973 C 59.719 20.354, 59.314 20.667, 58.584 20.667 C 57.002 20.667, 46.757 28.501, 39.187 35.500 C 32.321 41.848, 19.816 57.894, 20.665 59.267 C 21.019 59.840, 20.852 60.027, 20.294 59.682 C 19.736 59.337, 18.441 60.955, 17.417 63.277 C 16.393 65.600, 15.223 67.741, 14.816 68.035 C 13.851 68.734, 10.574 76.279, 10.814 77.250 C 10.916 77.662, 10.550 78, 10 78 C 9.450 78, 9.071 78.338, 9.159 78.750 C 9.246 79.162, 9.067 80.175, 8.761 81 C 4.731 91.869, 3.306 97.458, 1.238 110.500 C 0.385 115.879, 0.426 140.384, 1.297 146 C 1.680 148.475, 2.235 152.264, 2.528 154.421 C 2.972 157.681, 6.427 169.151, 8.728 175 C 9.052 175.825, 9.246 176.838, 9.159 177.250 C 9.071 177.662, 9.450 178, 10 178 C 10.550 178, 10.916 178.338, 10.814 178.750 C 10.574 179.721, 13.851 187.266, 14.816 187.965 C 15.223 188.259, 16.393 190.400, 17.417 192.723 C 18.441 195.045, 19.591 196.753, 19.973 196.517 C 20.354 196.281, 20.667 196.686, 20.667 197.416 C 20.667 198.998, 28.501 209.243, 35.500 216.813 C 41.848 223.679, 57.894 236.184, 59.267 235.335 C 59.840 234.981, 60.027 235.148, 59.682 235.706 C 59.337 236.264, 60.955 237.559, 63.277 238.583 C 65.600 239.607, 67.741 240.777, 68.035 241.184 C 68.734 242.149, 76.279 245.426, 77.250 245.186 C 77.663 245.084, 78 245.450, 78 246 C 78 246.550, 78.338 246.929, 78.750 246.841 C 79.162 246.754, 80.175 246.933, 81 247.239 C 91.869 251.269, 97.458 252.694, 110.500 254.762 C 115.681 255.583, 140.319 255.583, 145.500 254.762 C 158.542 252.694, 164.131 251.269, 175 247.239 C 175.825 246.933, 176.838 246.754, 177.250 246.841 C 177.662 246.929, 178 246.550, 178 246 C 178 245.450, 178.338 245.084, 178.750 245.186 C 179.721 245.426, 187.266 242.149, 187.965 241.184 C 188.259 240.777, 190.400 239.607, 192.723 238.583 C 195.045 237.559, 196.663 236.264, 196.318 235.706 C 195.973 235.148, 196.160 234.981, 196.733 235.335 C 198.106 236.184, 214.152 223.679, 220.500 216.813 C 227.499 209.243, 235.333 198.998, 235.333 197.416 C 235.333 196.686, 235.646 196.281, 236.027 196.517 C 236.409 196.753, 237.559 195.045, 238.583 192.723 C 239.607 190.400, 240.777 188.259, 241.184 187.965 C 242.149 187.266, 245.426 179.721, 245.186 178.750 C 245.084 178.338, 245.450 178, 246 178 C 246.550 178, 246.929 177.662, 246.841 177.250 C 246.754 176.838, 246.948 175.825, 247.272 175 C 249.573 169.151, 253.028 157.681, 253.472 154.421 C 253.765 152.264, 254.264 148.479, 254.581 146.008 C 254.897 143.538, 255.684 140.864, 256.328 140.066 C 257.240 138.938, 257.222 138.783, 256.250 139.367 C 255.562 139.780, 255 139.668, 255 139.118 C 255 138.568, 255.450 137.840, 256 137.500 C 257.513 136.565, 257.268 132.731, 255.750 133.588 C 254.750 134.152, 254.750 134.024, 255.750 132.947 C 256.438 132.206, 257 129.413, 257 126.741 C 257 123.144, 256.675 122.065, 255.750 122.588 C 254.750 123.152, 254.750 123.024, 255.750 121.947 C 257.233 120.349, 257.443 116.608, 256 117.500 C 254.583 118.376, 254.758 116.661, 256.250 115.053 C 257.250 113.976, 257.250 113.848, 256.250 114.412 C 255.418 114.882, 254.957 114.346, 254.872 112.809 C 254.406 104.366, 251.659 92.921, 247.239 81 C 246.933 80.175, 246.754 79.162, 246.841 78.750 C 246.929 78.338, 246.550 78, 246 78 C 245.450 78, 245.084 77.662, 245.186 77.250 C 245.426 76.279, 242.149 68.734, 241.184 68.035 C 240.777 67.741, 239.607 65.600, 238.583 63.277 C 237.559 60.955, 236.264 59.337, 235.706 59.682 C 235.148 60.027, 234.981 59.840, 235.335 59.267 C 236.184 57.894, 223.679 41.848, 216.813 35.500 C 209.243 28.501, 198.998 20.667, 197.416 20.667 C 196.686 20.667, 196.281 20.354, 196.517 19.973 C 196.753 19.591, 195.045 18.441, 192.723 17.417 C 190.400 16.393, 188.259 15.223, 187.965 14.816 C 187.266 13.851, 179.721 10.574, 178.750 10.814 C 178.338 10.916, 178 10.550, 178 10 C 178 9.450, 177.662 9.071, 177.250 9.159 C 176.838 9.246, 175.825 9.052, 175 8.728 C 168.846 6.307, 157.605 2.966, 153.933 2.466 C 151.495 2.134, 148.375 1.646, 147 1.382 C 143.986 0.803, 115.314 0.019, 114.831 0.502 M 121.500 89.671 C 119.590 90.052, 119.514 90.748, 119.800 105.035 L 120.100 120 106.117 120 C 90.251 120, 90.453 119.883, 90.890 128.845 C 91.263 136.488, 91.376 136.540, 106.629 136.195 L 120.093 135.891 119.945 150.647 C 119.778 167.212, 119.589 166.804, 127.500 166.916 C 136.337 167.041, 136 167.678, 136 150.829 L 136 135.892 149.434 136.196 L 162.869 136.500 164.452 133.816 C 165.979 131.227, 166.003 126.735, 164.513 122.041 C 163.902 120.115, 163.081 120, 149.933 120 L 136 120 136 105.117 C 136 90.527, 135.956 90.221, 133.750 89.630 C 131.355 88.988, 124.813 89.010, 121.500 89.671 M 0.158 120 C 0.158 121.375, 0.385 121.938, 0.662 121.250 C 0.940 120.563, 0.940 119.438, 0.662 118.750 C 0.385 118.063, 0.158 118.625, 0.158 120 M 0.300 128 C 0.300 131.025, 0.487 132.262, 0.716 130.750 C 0.945 129.238, 0.945 126.763, 0.716 125.250 C 0.487 123.737, 0.300 124.975, 0.300 128 M 0.158 136 C 0.158 137.375, 0.385 137.938, 0.662 137.250 C 0.940 136.563, 0.940 135.438, 0.662 134.750 C 0.385 134.063, 0.158 134.625, 0.158 136" stroke="none" fill="#540c8c" fill-rule="evenodd"/></svg>