<svg xmlns="http://www.w3.org/2000/svg" width="242" height="255" viewBox="0 0 242 255" version="1.1"><path d="M 109.813 0.683 C 110.534 0.972, 111.397 0.936, 111.729 0.604 C 112.061 0.272, 111.471 0.036, 110.417 0.079 C 109.252 0.127, 109.015 0.364, 109.813 0.683 M 128.813 0.683 C 129.534 0.972, 130.397 0.936, 130.729 0.604 C 131.061 0.272, 130.471 0.036, 129.417 0.079 C 128.252 0.127, 128.015 0.364, 128.813 0.683 M 104.750 1.662 C 105.438 1.940, 106.563 1.940, 107.250 1.662 C 107.938 1.385, 107.375 1.158, 106 1.158 C 104.625 1.158, 104.063 1.385, 104.750 1.662 M 132.750 1.662 C 133.438 1.940, 134.563 1.940, 135.250 1.662 C 135.938 1.385, 135.375 1.158, 134 1.158 C 132.625 1.158, 132.063 1.385, 132.750 1.662 M 86.813 6.683 C 87.534 6.972, 88.397 6.936, 88.729 6.604 C 89.061 6.272, 88.471 6.036, 87.417 6.079 C 86.252 6.127, 86.015 6.364, 86.813 6.683 M 151.813 6.683 C 152.534 6.972, 153.397 6.936, 153.729 6.604 C 154.061 6.272, 153.471 6.036, 152.417 6.079 C 151.252 6.127, 151.015 6.364, 151.813 6.683 M 53.500 125 C 53.160 125.550, 53.359 126, 53.941 126 C 54.523 126, 55 125.550, 55 125 C 55 124.450, 54.802 124, 54.559 124 C 54.316 124, 53.840 124.450, 53.500 125 M 185 125 C 185 125.550, 185.477 126, 186.059 126 C 186.641 126, 186.840 125.550, 186.500 125 C 186.160 124.450, 185.684 124, 185.441 124 C 185.198 124, 185 124.450, 185 125 M 118.250 234.689 C 119.213 234.941, 120.787 234.941, 121.750 234.689 C 122.713 234.438, 121.925 234.232, 120 234.232 C 118.075 234.232, 117.287 234.438, 118.250 234.689" stroke="none" fill="#4c0c8c" fill-rule="evenodd"/><path d="M 111.745 0.588 C 111.449 0.884, 109.077 1.300, 106.474 1.512 C 100.182 2.025, 95.778 3.007, 94.250 4.238 C 93.563 4.792, 93 4.910, 93 4.500 C 93 4.090, 92.396 4.256, 91.658 4.869 C 90.920 5.481, 90.020 5.687, 89.658 5.325 C 89.296 4.963, 89 5.192, 89 5.833 C 89 6.475, 87.930 7, 86.622 7 C 85.315 7, 83.697 7.661, 83.027 8.468 C 82.356 9.275, 81.472 9.838, 81.061 9.718 C 79.583 9.286, 69.371 16.567, 63.173 22.472 C 56.957 28.393, 49.021 37.932, 49.996 38.308 C 50.269 38.414, 49.481 39.920, 48.245 41.656 C 46.230 44.485, 40.441 60.209, 40.018 64 C 39.926 64.825, 39.625 74.224, 39.348 84.887 C 39.072 95.550, 38.356 105.450, 37.757 106.887 C 37.158 108.324, 36.623 109.725, 36.568 110 C 36.514 110.275, 36.112 111.063, 35.676 111.750 C 35.239 112.438, 35.203 113, 35.596 113 C 35.989 113, 35.495 113.900, 34.500 115 C 33.505 116.100, 33.040 117, 33.467 117 C 33.895 117, 33.744 117.604, 33.131 118.342 C 32.519 119.080, 32.313 119.980, 32.675 120.342 C 33.037 120.704, 32.844 121, 32.247 121 C 31.650 121, 30.383 123.363, 29.433 126.250 C 28.483 129.137, 27.401 131.725, 27.030 132 C 26.054 132.724, 19 149.940, 19 151.600 C 19 152.370, 18.580 153, 18.067 153 C 17.302 153, 16.319 154.885, 15.460 158 C 15.385 158.275, 14.615 160.071, 13.751 161.990 C 12.886 163.910, 12.390 165.822, 12.648 166.240 C 12.907 166.658, 12.615 167, 12 167 C 11.385 167, 11.141 167.419, 11.457 167.931 C 11.774 168.443, 11.578 169.143, 11.022 169.487 C 10.466 169.830, 9.513 171.041, 8.906 172.176 C 8.017 173.837, 8.065 174.086, 9.150 173.449 C 9.893 173.013, 9.678 173.594, 8.674 174.740 C 7.670 175.887, 6.749 177.427, 6.626 178.162 C 6.504 178.898, 5.922 180.400, 5.334 181.500 C 3.853 184.267, 2.617 190.830, 2.812 194.890 C 2.974 198.264, 7.356 207, 8.887 207 C 9.328 207, 10.978 208.108, 12.554 209.462 C 16.981 213.266, 23.089 214, 50.316 214 L 75.534 214 75.639 217.993 C 75.696 220.189, 76.247 222.593, 76.863 223.335 C 77.479 224.077, 77.736 224.931, 77.435 225.232 C 76.768 225.898, 80.813 234.700, 82.958 237.250 C 87.038 242.101, 94.509 249, 95.684 249 C 96.408 249, 97 249.525, 97 250.167 C 97 250.808, 97.279 251.055, 97.619 250.714 C 97.960 250.374, 98.875 250.732, 99.653 251.510 C 102.102 253.959, 108.124 254.989, 120 254.989 C 131.876 254.989, 137.898 253.959, 140.347 251.510 C 141.125 250.732, 142.040 250.374, 142.381 250.714 C 142.721 251.055, 143 250.808, 143 250.167 C 143 249.525, 143.592 249, 144.316 249 C 145.491 249, 152.962 242.101, 157.042 237.250 C 159.187 234.700, 163.232 225.898, 162.565 225.232 C 162.264 224.931, 162.521 224.077, 163.137 223.335 C 163.753 222.593, 164.304 220.189, 164.361 217.993 L 164.466 214 189.684 214 C 216.911 214, 223.019 213.266, 227.446 209.462 C 229.022 208.108, 230.672 207, 231.113 207 C 232.644 207, 237.026 198.264, 237.188 194.890 C 237.383 190.830, 236.147 184.267, 234.666 181.500 C 234.078 180.400, 233.496 178.898, 233.374 178.162 C 233.251 177.427, 232.330 175.887, 231.326 174.740 C 230.322 173.594, 230.107 173.013, 230.850 173.449 C 231.935 174.086, 231.983 173.837, 231.094 172.176 C 230.487 171.041, 229.534 169.830, 228.978 169.487 C 228.422 169.143, 228.226 168.443, 228.543 167.931 C 228.859 167.419, 228.615 167, 228 167 C 227.385 167, 227.093 166.658, 227.352 166.240 C 227.610 165.822, 227.114 163.910, 226.249 161.990 C 225.385 160.071, 224.615 158.275, 224.540 158 C 223.681 154.885, 222.698 153, 221.933 153 C 221.420 153, 221 152.370, 221 151.600 C 221 149.940, 213.946 132.724, 212.970 132 C 212.599 131.725, 211.517 129.137, 210.567 126.250 C 209.617 123.362, 208.350 121, 207.753 121 C 207.156 121, 206.963 120.704, 207.325 120.342 C 207.687 119.980, 207.481 119.080, 206.869 118.342 C 206.256 117.604, 206.105 117, 206.533 117 C 206.960 117, 206.495 116.100, 205.500 115 C 204.505 113.900, 204.040 113, 204.467 113 C 204.895 113, 204.778 112.438, 204.207 111.750 C 203.637 111.063, 203.163 110.275, 203.155 110 C 203.147 109.725, 202.694 108.324, 202.147 106.887 C 201.601 105.450, 200.928 95.550, 200.652 84.887 C 200.375 74.224, 200.074 64.825, 199.982 64 C 199.559 60.209, 193.770 44.485, 191.755 41.656 C 190.519 39.920, 189.731 38.414, 190.004 38.308 C 190.979 37.932, 183.043 28.393, 176.827 22.472 C 170.914 16.838, 160.786 9.500, 158.924 9.500 C 158.471 9.500, 157.537 8.938, 156.850 8.250 C 156.163 7.563, 154.565 7, 153.300 7 C 152.035 7, 151 6.523, 151 5.941 C 151 5.359, 150.581 5.141, 150.069 5.457 C 149.557 5.774, 148.851 5.568, 148.500 5 C 148.149 4.432, 147.474 4.207, 147 4.500 C 146.526 4.793, 145.880 4.614, 145.564 4.103 C 145.043 3.261, 140.654 2.229, 134 1.383 C 128.328 0.663, 112.245 0.088, 111.745 0.588 M 113.496 21.837 C 113.310 22.023, 111.307 22.353, 109.044 22.571 C 106.781 22.789, 104.036 23.446, 102.944 24.030 C 101.852 24.614, 100.518 24.820, 99.979 24.487 C 99.441 24.154, 99 24.385, 99 25 C 99 25.615, 98.550 25.840, 98 25.500 C 97.450 25.160, 97 25.268, 97 25.740 C 97 26.212, 95.480 27.148, 93.622 27.820 C 89.011 29.487, 77.941 38.006, 74.319 42.675 C 71.336 46.520, 63.400 60.271, 63.879 60.764 C 64.020 60.909, 63.639 63.422, 63.032 66.347 C 62.424 69.272, 61.817 79.953, 61.683 90.083 C 61.434 108.743, 61.056 112.022, 58.846 114.685 C 58.170 115.500, 57.556 116.989, 57.482 117.994 C 57.408 118.999, 56.494 121.099, 55.451 122.660 C 54.408 124.222, 53.660 125.851, 53.788 126.280 C 53.916 126.709, 53.247 128.509, 52.302 130.280 C 51.357 132.051, 50.545 133.725, 50.497 134 C 50.167 135.911, 47.479 142, 46.966 142 C 46.618 142, 46.323 142.563, 46.311 143.250 C 46.299 143.938, 44.850 147.650, 43.092 151.500 C 35.630 167.839, 34 171.675, 34 172.901 C 34 173.506, 33.550 174, 33 174 C 32.450 174, 32 174.718, 32 175.596 C 32 177.113, 31.473 178.330, 27.648 185.654 C 24.041 192.558, 15.915 192, 120 192 C 224.085 192, 215.959 192.558, 212.352 185.654 C 208.527 178.330, 208 177.113, 208 175.596 C 208 174.718, 207.550 174, 207 174 C 206.450 174, 206 173.506, 206 172.901 C 206 171.675, 204.370 167.839, 196.908 151.500 C 195.150 147.650, 193.701 143.938, 193.689 143.250 C 193.677 142.563, 193.382 142, 193.034 142 C 192.521 142, 189.833 135.911, 189.503 134 C 189.455 133.725, 188.643 132.051, 187.698 130.280 C 186.753 128.509, 186.084 126.709, 186.212 126.280 C 186.340 125.851, 185.592 124.222, 184.549 122.660 C 183.506 121.099, 182.592 118.999, 182.518 117.994 C 182.444 116.989, 181.830 115.500, 181.154 114.685 C 178.944 112.022, 178.566 108.743, 178.317 90.083 C 178.183 79.953, 177.576 69.272, 176.968 66.347 C 176.361 63.422, 175.911 60.787, 175.969 60.493 C 176.164 59.504, 168.677 46.537, 165.681 42.675 C 162.059 38.006, 150.989 29.487, 146.378 27.820 C 144.520 27.148, 143 26.212, 143 25.740 C 143 25.268, 142.550 25.160, 142 25.500 C 141.450 25.840, 141 25.615, 141 25 C 141 24.385, 140.559 24.154, 140.021 24.487 C 139.482 24.820, 138.148 24.614, 137.056 24.030 C 134.178 22.490, 114.659 20.673, 113.496 21.837 M 98.461 217.646 C 99.461 222.976, 105.224 231, 108.052 231 C 108.573 231, 109 231.450, 109 232 C 109 232.550, 109.338 232.899, 109.750 232.775 C 110.162 232.652, 112.638 233.160, 115.250 233.905 C 119.246 235.045, 120.754 235.045, 124.750 233.905 C 127.362 233.160, 129.838 232.652, 130.250 232.775 C 130.662 232.899, 131 232.550, 131 232 C 131 231.450, 131.427 231, 131.948 231 C 134.776 231, 140.539 222.976, 141.539 217.646 L 142.223 214 120 214 L 97.777 214 98.461 217.646" stroke="none" fill="#540c8c" fill-rule="evenodd"/></svg>