<svg xmlns="http://www.w3.org/2000/svg" width="256" height="256" viewBox="0 0 256 256" version="1.1"><path d="" stroke="none" fill="#580c8c" fill-rule="evenodd"/><path d="M 102 12.500 L 102 25 63.500 25 L 25 25 25 38.500 L 25 52 31.500 52 L 38 52 38 142.962 C 38 232.026, 38.043 234.039, 40.037 239.369 C 42.287 245.382, 48.746 252.160, 54.528 254.576 C 59.598 256.695, 196.402 256.695, 201.472 254.576 C 207.254 252.160, 213.713 245.382, 215.963 239.369 C 217.957 234.039, 218 232.026, 218 142.962 L 218 52 224.500 52 L 231 52 231 38.500 L 231 25 192.500 25 L 154 25 154 12.500 L 154 0 128 0 L 102 0 102 12.500 M 64 141 L 64 230 128 230 L 192 230 192 141 L 192 52 128 52 L 64 52 64 141 M 89 140.500 L 89 205 102.500 205 L 116 205 116 140.500 L 116 76 102.500 76 L 89 76 89 140.500 M 140 140.500 L 140 205 153.500 205 L 167 205 167 140.500 L 167 76 153.500 76 L 140 76 140 140.500" stroke="none" fill="#540c8c" fill-rule="evenodd"/></svg>