<svg xmlns="http://www.w3.org/2000/svg" width="256" height="256" viewBox="0 0 256 256" version="1.1"><path d="M 19.324 40.430 C 13.793 42.172, 8.671 45.413, 5.505 49.176 C -0.173 55.924, 0 53.443, -0 128.133 C -0 196.078, 0.029 197.083, 2.105 201.499 C 4.585 206.775, 9.622 211.467, 15.949 214.394 C 20.487 216.494, 20.809 216.500, 128 216.500 C 235.191 216.500, 235.513 216.494, 240.051 214.394 C 246.445 211.436, 251.235 206.927, 254.338 200.946 L 257 195.815 257 126.349 C 257 85.822, 256.628 57.112, 256.107 57.434 C 255.615 57.738, 254.957 56.965, 254.644 55.716 C 253.640 51.719, 247.122 45.207, 241.224 42.311 L 235.500 39.500 129.500 39.308 C 44.274 39.153, 22.682 39.373, 19.324 40.430 M 0.474 128 C 0.474 166.775, 0.598 182.638, 0.750 163.250 C 0.901 143.863, 0.901 112.138, 0.750 92.750 C 0.598 73.363, 0.474 89.225, 0.474 128 M 35.023 60.363 C 47.843 72.593, 129.419 143.043, 130.321 142.663 C 131.156 142.311, 222.885 62.296, 226.917 58.402 C 227.146 58.181, 183.506 58, 129.939 58 L 32.545 58 35.023 60.363 M 19 129.018 C 19 183.315, 19.089 186.175, 20.745 184.872 C 21.705 184.118, 31.942 175.171, 43.495 164.992 C 55.048 154.813, 68.887 142.709, 74.250 138.096 C 79.612 133.482, 83.967 129.436, 83.926 129.104 C 83.866 128.605, 39.279 89.160, 23.500 75.646 L 19 71.792 19 129.018 M 228.500 82.240 C 197.744 109.180, 176.013 128.595, 176.007 129.139 C 176.003 129.491, 189.613 141.784, 206.250 156.457 L 236.500 183.136 236.766 156.068 C 236.912 141.181, 236.912 116.902, 236.766 102.116 L 236.500 75.233 228.500 82.240 M 66.940 169.762 L 35.380 197.500 82.766 197.760 C 108.828 197.903, 151.295 197.903, 177.138 197.760 L 224.124 197.500 192.439 169.691 L 160.755 141.882 158.627 143.831 C 146.831 154.639, 134.072 165.194, 132.250 165.651 C 127.992 166.721, 125.041 164.950, 111.989 153.491 C 104.791 147.171, 98.811 142.006, 98.701 142.012 C 98.590 142.019, 84.298 154.507, 66.940 169.762" stroke="none" fill="#500e8c" fill-rule="evenodd"/></svg>