<svg xmlns="http://www.w3.org/2000/svg" width="256" height="256" viewBox="0 0 256 256" version="1.1"><path d="M 50.872 25.750 C 49.629 27.336, 49.664 27.371, 51.250 26.128 C 52.212 25.373, 53 24.585, 53 24.378 C 53 23.555, 52.179 24.084, 50.872 25.750 M 203 24.378 C 203 24.585, 203.787 25.373, 204.750 26.128 C 206.336 27.371, 206.371 27.336, 205.128 25.750 C 203.821 24.084, 203 23.555, 203 24.378 M 24.872 51.750 C 23.629 53.336, 23.664 53.371, 25.250 52.128 C 26.916 50.821, 27.445 50, 26.622 50 C 26.415 50, 25.627 50.788, 24.872 51.750 M 229 50.378 C 229 50.585, 229.787 51.373, 230.750 52.128 C 232.336 53.371, 232.371 53.336, 231.128 51.750 C 229.821 50.084, 229 49.555, 229 50.378 M 50 62.383 C 50 62.594, 50.901 63.002, 52.001 63.290 C 53.102 63.578, 53.751 63.405, 53.442 62.907 C 52.904 62.036, 50 61.594, 50 62.383 M 55.733 64.124 C 56.412 64.808, 57.219 65.115, 57.526 64.807 C 57.834 64.499, 57.279 63.940, 56.293 63.564 C 54.868 63.022, 54.753 63.136, 55.733 64.124 M 154.813 73.683 C 155.534 73.972, 156.397 73.936, 156.729 73.604 C 157.061 73.272, 156.471 73.036, 155.417 73.079 C 154.252 73.127, 154.015 73.364, 154.813 73.683 M 17.079 108.583 C 17.127 109.748, 17.364 109.985, 17.683 109.188 C 17.972 108.466, 17.936 107.603, 17.604 107.271 C 17.272 106.939, 17.036 107.529, 17.079 108.583 M 238.079 108.583 C 238.127 109.748, 238.364 109.985, 238.683 109.188 C 238.972 108.466, 238.936 107.603, 238.604 107.271 C 238.272 106.939, 238.036 107.529, 238.079 108.583 M 16.232 117 C 16.232 118.925, 16.438 119.713, 16.689 118.750 C 16.941 117.787, 16.941 116.213, 16.689 115.250 C 16.438 114.287, 16.232 115.075, 16.232 117 M 16.232 139 C 16.232 140.925, 16.438 141.713, 16.689 140.750 C 16.941 139.787, 16.941 138.213, 16.689 137.250 C 16.438 136.287, 16.232 137.075, 16.232 139 M 17.079 147.583 C 17.127 148.748, 17.364 148.985, 17.683 148.188 C 17.972 147.466, 17.936 146.603, 17.604 146.271 C 17.272 145.939, 17.036 146.529, 17.079 147.583 M 238.079 147.583 C 238.127 148.748, 238.364 148.985, 238.683 148.188 C 238.972 147.466, 238.936 146.603, 238.604 146.271 C 238.272 145.939, 238.036 146.529, 238.079 147.583 M 154.813 182.683 C 155.534 182.972, 156.397 182.936, 156.729 182.604 C 157.061 182.272, 156.471 182.036, 155.417 182.079 C 154.252 182.127, 154.015 182.364, 154.813 182.683 M 55.507 191.989 C 55.157 192.555, 55.558 192.723, 56.448 192.382 C 58.180 191.717, 58.497 191, 57.059 191 C 56.541 191, 55.843 191.445, 55.507 191.989 M 51.500 193 C 49.870 193.701, 49.812 193.872, 51.191 193.930 C 52.121 193.968, 53.160 193.550, 53.500 193 C 54.211 191.850, 54.176 191.850, 51.500 193 M 24 203.378 C 24 203.585, 24.788 204.373, 25.750 205.128 C 27.336 206.371, 27.371 206.336, 26.128 204.750 C 24.821 203.084, 24 202.555, 24 203.378 M 229.872 204.750 C 228.629 206.336, 228.664 206.371, 230.250 205.128 C 231.916 203.821, 232.445 203, 231.622 203 C 231.415 203, 230.627 203.787, 229.872 204.750 M 159.564 213.707 C 159.022 215.132, 159.136 215.247, 160.124 214.267 C 160.808 213.588, 161.115 212.781, 160.807 212.474 C 160.499 212.166, 159.940 212.721, 159.564 213.707 M 50 229.378 C 50 229.585, 50.788 230.373, 51.750 231.128 C 53.336 232.371, 53.371 232.336, 52.128 230.750 C 50.821 229.084, 50 228.555, 50 229.378 M 203.872 230.750 C 202.629 232.336, 202.664 232.371, 204.250 231.128 C 205.916 229.821, 206.445 229, 205.622 229 C 205.415 229, 204.627 229.787, 203.872 230.750" stroke="none" fill="#4c0c8c" fill-rule="evenodd"/><path d="M 112 0.724 C 105.753 1.591, 89.303 5.352, 87.500 6.325 C 86.400 6.918, 84.844 7.512, 84.042 7.644 C 81.813 8.011, 74.579 11.334, 73.888 12.308 C 73.552 12.782, 72.877 13.186, 72.388 13.205 C 69.803 13.305, 58.976 19.430, 58.167 21.250 C 57.983 21.662, 57.274 22, 56.591 22 C 55.908 22, 54.292 23.125, 53 24.500 C 51.708 25.875, 50.158 27, 49.555 27 C 47.778 27, 27 47.874, 27 49.659 C 27 50.205, 25.875 51.708, 24.500 53 C 23.125 54.292, 22 55.908, 22 56.591 C 22 57.274, 21.663 57.983, 21.250 58.167 C 19.423 58.978, 12.442 71.459, 13.015 72.888 C 13.101 73.102, 12.782 73.552, 12.308 73.888 C 11.334 74.579, 8.011 81.813, 7.644 84.042 C 7.512 84.844, 6.916 86.400, 6.320 87.500 C 5.324 89.339, 3.966 94.357, 3.478 98 C 3.368 98.825, 3.013 100.175, 2.690 101 C -0.503 109.154, -0.503 146.846, 2.690 155 C 3.013 155.825, 3.368 157.175, 3.478 158 C 3.966 161.643, 5.324 166.661, 6.320 168.500 C 6.916 169.600, 7.512 171.156, 7.644 171.958 C 8.011 174.187, 11.334 181.421, 12.308 182.112 C 12.782 182.448, 13.101 182.898, 13.015 183.112 C 12.442 184.541, 19.423 197.022, 21.250 197.833 C 21.662 198.017, 22 198.726, 22 199.409 C 22 200.092, 23.125 201.708, 24.500 203 C 25.875 204.292, 27 205.795, 27 206.341 C 27 208.126, 47.778 229, 49.555 229 C 50.158 229, 51.708 230.125, 53 231.500 C 54.292 232.875, 55.908 234, 56.591 234 C 57.274 234, 57.983 234.338, 58.167 234.750 C 58.976 236.570, 69.803 242.695, 72.388 242.795 C 72.877 242.814, 73.552 243.218, 73.888 243.692 C 74.559 244.639, 81.716 247.952, 84.042 248.392 C 84.844 248.544, 86.625 249.189, 88 249.825 C 89.375 250.461, 94.775 251.947, 100 253.128 C 114.432 256.389, 146.864 256.496, 155 253.310 C 155.825 252.987, 157.175 252.632, 158 252.522 C 161.643 252.034, 166.661 250.676, 168.500 249.680 C 169.600 249.084, 171.156 248.488, 171.958 248.356 C 174.187 247.989, 181.421 244.666, 182.112 243.692 C 182.448 243.218, 182.898 242.899, 183.112 242.985 C 184.541 243.558, 197.022 236.577, 197.833 234.750 C 198.017 234.338, 198.726 234, 199.409 234 C 200.092 234, 201.708 232.875, 203 231.500 C 204.292 230.125, 205.795 229, 206.341 229 C 208.126 229, 229 208.222, 229 206.445 C 229 205.842, 230.125 204.292, 231.500 203 C 232.875 201.708, 234 200.092, 234 199.409 C 234 198.726, 234.337 198.017, 234.750 197.833 C 236.570 197.024, 242.695 186.197, 242.795 183.612 C 242.814 183.123, 243.218 182.448, 243.692 182.112 C 244.666 181.421, 247.989 174.187, 248.356 171.958 C 248.488 171.156, 249.091 169.600, 249.695 168.500 C 250.300 167.400, 251.798 161.325, 253.024 155 C 254.250 148.675, 255.680 142.665, 256.201 141.645 C 256.927 140.222, 256.840 139.965, 255.824 140.542 C 254.759 141.147, 254.744 141.030, 255.750 139.947 C 256.438 139.206, 257 137.763, 257 136.741 C 257 135.544, 256.555 135.133, 255.750 135.588 C 254.750 136.152, 254.750 136.024, 255.750 134.947 C 256.498 134.141, 257 130.843, 257 126.741 C 257 121.544, 256.697 120.053, 255.750 120.588 C 254.750 121.152, 254.750 121.024, 255.750 119.947 C 256.438 119.206, 257 117.763, 257 116.741 C 257 115.520, 256.571 115.140, 255.750 115.633 C 255.021 116.071, 255.126 115.598, 256 114.500 C 256.874 113.402, 256.979 112.929, 256.250 113.367 C 255.379 113.890, 255 113.338, 255 111.548 C 255 108.093, 251.271 91.127, 249.825 88 C 249.189 86.625, 248.544 84.844, 248.392 84.042 C 247.952 81.716, 244.639 74.559, 243.692 73.888 C 243.218 73.552, 242.814 72.877, 242.795 72.388 C 242.695 69.803, 236.570 58.976, 234.750 58.167 C 234.338 57.983, 234 57.274, 234 56.591 C 234 55.908, 232.875 54.292, 231.500 53 C 230.125 51.708, 229 50.158, 229 49.555 C 229 47.778, 208.126 27, 206.341 27 C 205.795 27, 204.292 25.875, 203 24.500 C 201.708 23.125, 200.092 22, 199.409 22 C 198.726 22, 198.017 21.663, 197.833 21.250 C 197.022 19.423, 184.541 12.442, 183.112 13.015 C 182.898 13.101, 182.448 12.782, 182.112 12.308 C 181.421 11.334, 174.187 8.011, 171.958 7.644 C 171.156 7.512, 169.600 6.916, 168.500 6.320 C 166.661 5.324, 161.643 3.966, 158 3.478 C 157.175 3.368, 155.825 3.013, 155 2.690 C 149.987 0.727, 121.396 -0.581, 112 0.724 M 114.946 20.862 C 108.761 24.844, 106.581 26.931, 102.694 32.587 C 97.389 40.305, 89.871 53.982, 90.432 54.890 C 91.004 55.816, 98.269 56.921, 108 57.563 C 111.575 57.798, 115.737 58.207, 117.250 58.470 L 120 58.950 120 38.475 C 120 27.214, 119.863 18, 119.696 18 C 119.528 18, 117.391 19.288, 114.946 20.862 M 136 38.369 L 136 58.738 138.750 58.440 C 140.262 58.277, 145.325 57.846, 150 57.484 C 154.675 57.121, 159.625 56.697, 161 56.541 C 162.375 56.385, 164.039 56.200, 164.698 56.129 C 165.602 56.032, 165.630 55.238, 164.815 52.898 C 163.512 49.161, 157.333 37.324, 155.994 36 C 155.716 35.725, 154.224 33.804, 152.679 31.731 C 151.133 29.658, 148.886 26.948, 147.684 25.709 C 145.560 23.519, 137.568 18, 136.521 18 C 136.235 18, 136 27.166, 136 38.369 M 170.351 27.925 C 174.367 33.515, 179.125 42.648, 180.940 48.250 C 181.608 50.313, 182.458 51.991, 182.828 51.979 C 184.244 51.935, 200.020 47.088, 201.569 46.221 C 202.888 45.483, 201.320 43.902, 193.349 37.931 C 187.932 33.874, 182.870 30.459, 182.100 30.343 C 181.330 30.228, 180.325 29.541, 179.865 28.816 C 179.406 28.092, 179.024 27.830, 179.015 28.233 C 179.007 28.636, 177.321 28.023, 175.269 26.871 C 173.218 25.718, 170.471 24.369, 169.165 23.873 C 166.969 23.038, 167.058 23.342, 170.351 27.925 M 84.250 24.706 C 83.013 24.944, 82 25.606, 82 26.177 C 82 26.747, 81.302 26.946, 80.448 26.618 C 79.558 26.277, 79.157 26.445, 79.507 27.011 C 80.049 27.888, 79.353 28.181, 77.362 27.915 C 77.011 27.868, 76.403 28.348, 76.012 28.981 C 75.620 29.615, 74.670 30.227, 73.900 30.341 C 73.130 30.456, 69.984 32.451, 66.909 34.775 C 63.834 37.099, 60.999 39, 60.610 39 C 60.220 39, 58.279 40.575, 56.297 42.500 C 53.755 44.969, 53.180 46, 54.347 46 C 55.256 46, 56 46.375, 56 46.833 C 56 47.292, 56.564 47.667, 57.253 47.667 C 57.941 47.667, 61.601 48.667, 65.385 49.889 C 69.169 51.112, 72.824 51.898, 73.506 51.636 C 74.189 51.374, 75.031 49.646, 75.379 47.795 C 75.726 45.945, 76.785 43.325, 77.732 41.972 C 78.679 40.620, 79.543 38.909, 79.651 38.169 C 79.760 37.430, 80.558 36.041, 81.424 35.084 C 82.291 34.126, 83 32.815, 83 32.171 C 83 31.527, 83.477 31, 84.059 31 C 84.641 31, 84.857 30.578, 84.538 30.061 C 84.219 29.545, 84.755 28.659, 85.729 28.092 C 86.703 27.525, 87.107 27.047, 86.628 27.030 C 86.148 27.014, 86.315 26.325, 87 25.500 C 87.685 24.675, 87.852 24.061, 87.372 24.136 C 86.893 24.211, 85.487 24.467, 84.250 24.706 M 37.531 62.537 C 36.138 64.914, 34.378 67.479, 33.619 68.238 C 30.027 71.830, 20.718 94.663, 19.344 103.250 C 19.014 105.313, 18.316 107, 17.793 107 C 17.263 107, 17.124 108.286, 17.479 109.905 C 17.845 111.571, 17.666 113.089, 17.059 113.464 C 16.476 113.824, 16 115.441, 16 117.059 L 16 120 38.500 120 L 61 120 61.082 116.750 C 61.379 105.025, 63.926 86.058, 66.601 75.656 C 67.428 72.441, 67.955 69.365, 67.773 68.819 C 67.506 68.017, 60.085 64.849, 55.500 63.579 C 54.950 63.427, 53.825 63.044, 53 62.728 C 52.175 62.412, 48.927 61.268, 45.782 60.185 L 40.064 58.215 37.531 62.537 M 208.669 60.992 C 204.286 63.181, 191.975 66.973, 188.363 67.247 C 187.215 67.334, 187.199 68.257, 188.300 71 C 190.630 76.811, 194.006 98.849, 194.378 110.678 L 194.655 119.500 216.836 119.769 L 239.017 120.038 238.776 113.769 C 238.643 110.321, 238.239 107.275, 237.878 107 C 237.517 106.725, 236.987 104.925, 236.699 103 C 235.452 94.653, 225.986 72.048, 221.901 67.663 C 220.855 66.541, 220 65.261, 220 64.819 C 220 63.267, 215.622 59, 214.070 59.040 C 213.206 59.062, 210.776 59.940, 208.669 60.992 M 84.090 74.683 C 81.262 85.239, 78.336 103.566, 77.693 114.750 L 77.391 120 98.695 120 L 120 120 120 97.500 L 120 75 116.750 74.949 C 113.473 74.898, 107.451 74.325, 101 73.451 C 99.075 73.190, 96.109 72.809, 94.408 72.603 C 92.708 72.397, 89.921 71.922, 88.215 71.547 C 85.277 70.902, 85.059 71.067, 84.090 74.683 M 166.825 71.509 C 166.254 72.079, 162.183 72.713, 153.468 73.590 C 149.086 74.031, 145.162 74.472, 144.750 74.571 C 144.338 74.669, 142.200 74.806, 140 74.875 L 136 75 136 97.500 L 136 120 157.257 120 L 178.514 120 178.250 115.250 C 177.826 107.627, 175.928 93.072, 174.372 85.500 C 171.851 73.241, 171.185 71.440, 169.116 71.284 C 168.059 71.204, 167.028 71.305, 166.825 71.509 M 0.158 118 C 0.158 119.375, 0.385 119.938, 0.662 119.250 C 0.940 118.563, 0.940 117.438, 0.662 116.750 C 0.385 116.063, 0.158 116.625, 0.158 118 M 0.336 128 C 0.336 132.125, 0.513 133.813, 0.728 131.750 C 0.944 129.688, 0.944 126.313, 0.728 124.250 C 0.513 122.188, 0.336 123.875, 0.336 128 M 0.158 138 C 0.158 139.375, 0.385 139.938, 0.662 139.250 C 0.940 138.563, 0.940 137.438, 0.662 136.750 C 0.385 136.063, 0.158 136.625, 0.158 138 M 16 138.941 C 16 140.559, 16.476 142.176, 17.059 142.536 C 17.666 142.911, 17.845 144.429, 17.479 146.095 C 17.124 147.714, 17.263 149, 17.793 149 C 18.316 149, 19.014 150.688, 19.344 152.750 C 20.718 161.337, 30.027 184.170, 33.619 187.762 C 34.378 188.521, 36.138 191.086, 37.531 193.463 L 40.064 197.785 45.782 195.815 C 48.927 194.732, 52.175 193.588, 53 193.272 C 53.825 192.956, 54.950 192.573, 55.500 192.421 C 60.085 191.151, 67.506 187.983, 67.773 187.181 C 67.955 186.635, 67.428 183.559, 66.601 180.344 C 63.926 169.942, 61.379 150.975, 61.082 139.250 L 61 136 38.500 136 L 16 136 16 138.941 M 78.316 146.750 C 78.612 152.662, 79.136 158.828, 79.483 160.450 C 79.829 162.073, 80.777 166.573, 81.590 170.450 C 84.657 185.082, 84.722 185.220, 88.215 184.453 C 91.263 183.783, 93.007 183.531, 102 182.461 C 104.475 182.166, 108.075 181.734, 110 181.500 C 111.925 181.267, 114.963 181.059, 116.750 181.038 L 120 181 120 158.500 L 120 136 98.890 136 L 77.779 136 78.316 146.750 M 136 158.500 L 136 181 140 181.125 C 142.200 181.194, 144.338 181.331, 144.750 181.429 C 145.162 181.528, 149.100 181.970, 153.500 182.411 C 157.900 182.853, 162.400 183.407, 163.500 183.643 C 170.516 185.145, 170.916 185.028, 171.948 181.175 C 174.772 170.634, 177.595 152.522, 178.250 140.750 L 178.514 136 157.257 136 L 136 136 136 158.500 M 194.914 136.250 C 194.867 136.387, 194.665 140.470, 194.465 145.322 C 193.963 157.487, 190.566 179.349, 188.300 185 C 187.199 187.743, 187.215 188.666, 188.363 188.753 C 191.927 189.024, 204.176 192.783, 208.849 195.041 C 211.079 196.118, 213.519 197, 214.271 197 C 215.680 197, 220 192.612, 220 191.181 C 220 190.739, 220.855 189.459, 221.901 188.337 C 225.986 183.952, 235.452 161.347, 236.699 153 C 236.987 151.075, 237.517 149.275, 237.878 149 C 238.239 148.725, 238.643 145.688, 238.775 142.250 L 239.015 136 217.008 136 C 204.903 136, 194.961 136.113, 194.914 136.250 M 117.917 197.398 C 117.688 197.617, 113.346 198.036, 108.268 198.328 C 103.191 198.620, 98.658 199.093, 98.196 199.379 C 97.734 199.664, 95.573 200.003, 93.394 200.132 L 89.431 200.366 94.467 209.933 C 100.557 221.503, 103.232 225.415, 108.191 230 C 114.060 235.426, 114.773 235.963, 117.474 236.990 L 120 237.950 120 217.475 C 120 199.473, 119.616 195.774, 117.917 197.398 M 136 217.631 C 136 228.834, 136.256 238, 136.570 238 C 137.357 238, 145.058 232.620, 147.511 230.356 C 151.210 226.942, 161 213.566, 161 211.925 C 161 211.372, 161.986 209.026, 163.192 206.710 C 165.851 201.603, 166.187 200.040, 164.662 199.871 C 164.023 199.800, 162.375 199.615, 161 199.459 C 159.625 199.303, 154.675 198.879, 150 198.516 C 145.325 198.154, 140.262 197.723, 138.750 197.560 L 136 197.262 136 217.631 M 64 206.478 C 60.425 207.706, 57.163 208.525, 56.750 208.297 C 56.337 208.069, 56 208.359, 56 208.941 C 56 209.523, 55.256 210, 54.347 210 C 53.180 210, 53.755 211.031, 56.297 213.500 C 58.279 215.425, 60.220 217, 60.610 217 C 60.999 217, 63.834 218.901, 66.909 221.225 C 69.984 223.549, 73.130 225.544, 73.900 225.659 C 74.670 225.773, 75.620 226.385, 76.012 227.019 C 76.403 227.652, 77.011 228.132, 77.362 228.085 C 79.420 227.810, 80.036 228.133, 79.405 229.155 C 78.940 229.906, 79.133 230.036, 79.957 229.526 C 80.654 229.096, 81.511 229.182, 81.862 229.718 C 82.213 230.254, 83.775 231.004, 85.334 231.386 C 88.489 232.159, 88.506 232.227, 83.834 225.326 C 81.226 221.473, 79.521 217.972, 79.049 215.500 C 78.943 214.950, 78.225 213.801, 77.453 212.948 C 76.680 212.094, 75.880 210.519, 75.674 209.448 C 74.500 203.326, 73.737 203.132, 64 206.478 M 181.093 207.750 C 180.373 209.813, 179.062 212.625, 178.181 214 C 177.299 215.375, 176.482 217.102, 176.365 217.838 C 176.247 218.573, 175.442 219.959, 174.576 220.916 C 173.709 221.874, 173 223.185, 173 223.829 C 173 224.473, 172.550 225, 172 225 C 171.450 225, 171 225.614, 171 226.365 C 171 227.116, 170.066 228.918, 168.924 230.369 L 166.848 233.008 169.194 232.116 C 170.484 231.626, 173.218 230.282, 175.269 229.129 C 177.321 227.977, 179.007 227.364, 179.015 227.767 C 179.024 228.170, 179.406 227.908, 179.865 227.184 C 180.325 226.459, 181.330 225.772, 182.100 225.657 C 182.870 225.541, 187.932 222.126, 193.349 218.069 C 201.320 212.098, 202.888 210.517, 201.569 209.779 C 200.108 208.961, 184.301 204.073, 182.951 204.021 C 182.649 204.009, 181.813 205.688, 181.093 207.750" stroke="none" fill="#540c8c" fill-rule="evenodd"/></svg>