<svg xmlns="http://www.w3.org/2000/svg" width="512" height="512" viewBox="0 0 512 512" version="1.1"><path d="M 256 59.875 L 256 119.750 259.125 120.375 C 260.844 120.719, 264.160 121, 266.494 121 C 278.979 121, 301.648 127.297, 317 135.029 C 330.161 141.658, 339.715 148.642, 352.045 160.649 L 362.591 170.918 405.358 128.142 L 448.124 85.367 435.198 72.843 C 409.394 47.842, 382.241 30.214, 349.449 17.172 C 323.730 6.943, 289.601 -0, 265.039 -0 L 256 0 256 59.875" stroke="none" fill="#cf2d48" fill-rule="evenodd"/><path d="M 96.057 368.443 C 65.067 399.439, 52.969 412.158, 53.546 413.135 C 55.865 417.061, 71.378 434.127, 80.305 442.571 C 120.042 480.161, 171.338 504.145, 225.559 510.488 C 232.670 511.319, 242.428 512, 247.244 512 L 256 512 256 452.131 L 256 392.262 252.250 391.642 C 250.188 391.301, 246.871 391.017, 244.881 391.011 C 233.453 390.976, 209.693 384.393, 195.840 377.423 C 174.627 366.750, 155.746 349.973, 142.768 330.267 L 139.376 325.116 96.057 368.443" stroke="none" fill="#31aa52" fill-rule="evenodd"/><path d="M 316.657 377.109 C 302.555 384.317, 278.829 390.975, 267.119 391.011 C 265.129 391.017, 261.813 391.301, 259.750 391.642 L 256 392.262 256 452.131 L 256 512 265.280 512 C 282.785 512, 309.172 507.713, 330.216 501.449 C 354.926 494.095, 382.767 480.445, 404.291 465.133 L 412.082 459.591 368.795 416.295 C 344.988 392.483, 325.282 373.022, 325.004 373.050 C 324.727 373.077, 320.971 374.904, 316.657 377.109" stroke="none" fill="#0f9d58" fill-rule="evenodd"/><path d="M 46.925 107.657 C 21.486 144.245, 7.075 181.569, 1.503 225.301 C -0.451 240.643, -0.451 271.357, 1.503 286.699 C 7.075 330.431, 21.486 367.755, 46.925 404.343 L 52.351 412.146 95.766 368.731 L 139.181 325.316 135.030 317.059 C 125.454 298.013, 120.725 277.830, 120.725 256 C 120.725 234.170, 125.454 213.987, 135.030 194.941 L 139.181 186.684 95.766 143.269 L 52.351 99.854 46.925 107.657" stroke="none" fill="#fbbd00" fill-rule="evenodd"/><path d="M 226.500 1.165 C 172.917 7.213, 120.329 31.712, 80.570 69.150 C 71.178 77.993, 53 98.184, 53 99.773 C 53 100.178, 72.473 119.978, 96.273 143.773 L 139.546 187.038 141.435 183.769 C 145.383 176.938, 156.215 163.974, 164.078 156.669 C 178.364 143.397, 194.703 133.718, 213.340 127.488 C 223.684 124.030, 238.346 121.009, 244.881 120.989 C 246.871 120.983, 250.188 120.699, 252.250 120.358 L 256 119.738 256 59.869 L 256 0 245.250 0.131 C 239.338 0.203, 230.900 0.668, 226.500 1.165" stroke="none" fill="#eb4132" fill-rule="evenodd"/><path d="M 256 257.500 L 256 318 316 318 C 349 318, 376 318.364, 376 318.809 C 376 320.135, 369.313 330.833, 364.030 337.960 C 357.333 346.994, 342.147 361.458, 332.864 367.646 L 325.227 372.736 368.498 415.998 C 399.455 446.948, 412.158 459.031, 413.135 458.454 C 417.061 456.135, 434.127 440.622, 442.571 431.695 C 472.110 400.469, 493.448 361.854, 504.016 320.500 C 509.538 298.893, 511.092 287.351, 511.713 263.346 C 512.340 239.093, 510.859 221.335, 506.408 199.750 L 505.841 197 380.921 197 L 256 197 256 257.500" stroke="none" fill="#3c79e6" fill-rule="evenodd"/></svg>