<svg xmlns="http://www.w3.org/2000/svg" width="256" height="256" viewBox="0 0 256 256" version="1.1"><path d="M 113 15 C 112.099 15.582, 111.975 15.975, 112.691 15.985 C 113.346 15.993, 114.160 15.550, 114.500 15 C 115.267 13.758, 114.921 13.758, 113 15 M 74.872 55.750 C 73.629 57.336, 73.664 57.371, 75.250 56.128 C 76.916 54.821, 77.445 54, 76.622 54 C 76.415 54, 75.627 54.788, 74.872 55.750 M 180 55.378 C 180 55.585, 180.787 56.373, 181.750 57.128 C 183.336 58.371, 183.371 58.336, 182.128 56.750 C 180.821 55.084, 180 54.555, 180 55.378 M 62.872 68.750 C 61.629 70.336, 61.664 70.371, 63.250 69.128 C 64.916 67.821, 65.445 67, 64.622 67 C 64.415 67, 63.627 67.787, 62.872 68.750 M 52.872 79.750 C 51.629 81.336, 51.664 81.371, 53.250 80.128 C 54.916 78.821, 55.445 78, 54.622 78 C 54.415 78, 53.627 78.787, 52.872 79.750 M 208.500 87 C 210.648 89.200, 212.631 91, 212.906 91 C 213.181 91, 211.648 89.200, 209.500 87 C 207.352 84.800, 205.369 83, 205.094 83 C 204.819 83, 206.352 84.800, 208.500 87 M 42.500 91 C 42.160 91.550, 42.359 92, 42.941 92 C 43.523 92, 44 91.550, 44 91 C 44 90.450, 43.802 90, 43.559 90 C 43.316 90, 42.840 90.450, 42.500 91 M 230.500 111 C 231.495 112.100, 232.535 113, 232.810 113 C 233.085 113, 232.495 112.100, 231.500 111 C 230.505 109.900, 229.465 109, 229.190 109 C 228.915 109, 229.505 109.900, 230.500 111 M 11.079 128.583 C 11.127 129.748, 11.364 129.985, 11.683 129.188 C 11.972 128.466, 11.936 127.603, 11.604 127.271 C 11.272 126.939, 11.036 127.529, 11.079 128.583" stroke="none" fill="#4c0c8c" fill-rule="evenodd"/><path d="M 118.500 12.613 C 111.202 16.124, 108.518 18.566, 93.597 35.277 C 82.249 47.986, 80.151 50.287, 75.473 55.150 C 73.013 57.708, 71 60.040, 71 60.333 C 71 60.626, 68.638 63.323, 65.750 66.327 C 62.862 69.331, 58.250 74.410, 55.500 77.615 C 52.750 80.820, 49.038 84.776, 47.250 86.405 C 45.462 88.035, 44 89.685, 44 90.073 C 44 90.461, 41.413 93.446, 38.250 96.705 C 29.170 106.063, 23 112.811, 23 113.384 C 23 113.674, 20.977 115.844, 18.504 118.206 C 16.031 120.568, 14.006 123.063, 14.004 123.750 C 14.002 124.438, 13.550 125, 13 125 C 12.450 125, 12 126.098, 12 127.441 C 12 128.784, 11.581 130.141, 11.069 130.457 C 9.810 131.235, 10.744 135.898, 12.813 139.163 C 14.667 142.090, 21.625 147.955, 23.388 148.077 C 24.483 148.152, 25.293 148.289, 31.750 149.487 L 35 150.091 35.015 189.295 C 35.032 232.777, 35.247 234.580, 41.104 240.437 C 43.852 243.186, 45.963 244.246, 50.274 245.043 C 55.734 246.052, 95.563 245.902, 99.385 244.858 C 102.410 244.031, 105.692 240.291, 106.371 236.894 C 106.717 235.165, 107 222.867, 107 209.566 C 107 191.572, 107.326 184.937, 108.272 183.642 C 109.402 182.098, 111.618 181.902, 128 181.902 C 144.382 181.902, 146.598 182.098, 147.728 183.642 C 148.674 184.937, 149 191.572, 149 209.566 C 149 222.867, 149.283 235.165, 149.629 236.894 C 150.308 240.291, 153.590 244.031, 156.615 244.858 C 160.437 245.902, 200.266 246.052, 205.726 245.043 C 210.037 244.246, 212.148 243.186, 214.896 240.437 C 220.753 234.580, 220.968 232.775, 220.985 189.321 L 221 150.142 226.690 148.960 C 233.157 147.618, 234.984 146.719, 239.827 142.500 C 244.702 138.253, 246.337 133.966, 244.990 128.963 C 244.403 126.784, 243.490 125, 242.961 125 C 242.433 125, 242 124.516, 242 123.924 C 242 122.825, 230.682 110.165, 214.407 93.058 C 209.406 87.801, 204.681 82.555, 203.907 81.401 C 203.133 80.246, 196.200 72.421, 188.500 64.011 C 180.800 55.601, 169.146 42.820, 162.601 35.610 C 146.329 17.681, 143.360 14.940, 138.076 12.966 C 132.434 10.858, 122.519 10.679, 118.500 12.613 M 119.500 24.304 C 117.850 25.432, 114.294 28.863, 111.598 31.928 C 108.901 34.993, 102.826 41.708, 98.098 46.851 C 85.414 60.646, 84.061 62.138, 77.500 69.561 C 74.200 73.294, 70.150 77.786, 68.500 79.542 C 66.850 81.297, 63.025 85.583, 60 89.065 C 56.975 92.547, 52.250 97.775, 49.500 100.682 C 46.750 103.589, 43.150 107.592, 41.500 109.578 C 39.850 111.563, 35.295 116.520, 31.377 120.594 C 27.460 124.667, 24.455 128, 24.699 128 C 24.943 128, 24.436 128.707, 23.571 129.571 C 20.744 132.399, 21.861 135.224, 26.520 137.030 C 28.159 137.665, 33.446 138.130, 38.268 138.063 L 47.037 137.943 46.980 183.791 C 46.949 209.007, 47.201 230.360, 47.539 231.242 C 47.878 232.124, 48.907 233.144, 49.827 233.509 C 51.340 234.109, 95.093 234.241, 95.687 233.647 C 95.824 233.509, 95.980 221.779, 96.033 207.581 C 96.135 180.197, 96.197 179.811, 101.241 174.750 C 103.862 172.120, 105.070 171.587, 107.675 171.908 C 108.321 171.988, 109.135 171.591, 109.484 171.027 C 110.345 169.633, 145.655 169.633, 146.516 171.027 C 146.865 171.591, 147.679 171.988, 148.325 171.908 C 150.930 171.587, 152.138 172.120, 154.759 174.750 C 159.803 179.811, 159.865 180.197, 159.967 207.581 C 160.020 221.779, 160.176 233.509, 160.313 233.647 C 160.907 234.241, 204.660 234.109, 206.173 233.509 C 207.093 233.144, 208.122 232.124, 208.461 231.242 C 208.799 230.360, 209.051 209.007, 209.020 183.791 L 208.963 137.943 217.732 138.063 C 222.554 138.130, 227.841 137.665, 229.480 137.030 C 234.139 135.224, 235.256 132.399, 232.429 129.571 C 231.564 128.707, 231.057 128, 231.301 128 C 231.545 128, 228.540 124.667, 224.623 120.594 C 220.705 116.520, 216.150 111.563, 214.500 109.578 C 212.850 107.592, 209.250 103.589, 206.500 100.682 C 203.750 97.775, 199.025 92.547, 196 89.065 C 192.975 85.583, 189.150 81.297, 187.500 79.542 C 185.850 77.786, 181.800 73.294, 178.500 69.561 C 171.939 62.138, 170.586 60.646, 157.902 46.851 C 153.174 41.708, 147.099 34.992, 144.402 31.927 C 137.411 23.979, 134.545 22.293, 127.985 22.270 C 124.071 22.257, 121.641 22.839, 119.500 24.304" stroke="none" fill="#540c8c" fill-rule="evenodd"/></svg>