<svg xmlns="http://www.w3.org/2000/svg" width="256" height="256" viewBox="0 0 256 256" version="1.1"><path d="M 74 19.059 C 74 19.641, 74.450 19.840, 75 19.500 C 75.550 19.160, 76 18.684, 76 18.441 C 76 18.198, 75.550 18, 75 18 C 74.450 18, 74 18.477, 74 19.059 M 198.813 84.683 C 199.534 84.972, 200.397 84.936, 200.729 84.604 C 201.061 84.272, 200.471 84.036, 199.417 84.079 C 198.252 84.127, 198.015 84.364, 198.813 84.683 M 224.079 110.583 C 224.127 111.748, 224.364 111.985, 224.683 111.188 C 224.972 110.466, 224.936 109.603, 224.604 109.271 C 224.272 108.939, 224.036 109.529, 224.079 110.583 M 114.558 148.907 C 114.249 149.405, 114.898 149.578, 115.999 149.290 C 118.334 148.679, 118.629 148, 116.559 148 C 115.766 148, 114.866 148.408, 114.558 148.907 M 200.507 248.989 C 200.157 249.555, 200.558 249.723, 201.448 249.382 C 203.180 248.717, 203.497 248, 202.059 248 C 201.541 248, 200.843 248.445, 200.507 248.989" stroke="none" fill="#4c0c8c" fill-rule="evenodd"/><path d="M 98.500 2.908 C 91.168 5.021, 84.097 8.585, 83.344 10.545 C 83.037 11.345, 82.259 12, 81.616 12 C 80.405 12, 74.668 17.983, 75.840 18.022 C 76.203 18.034, 75.525 18.822, 74.333 19.772 C 71.862 21.742, 67.832 28.769, 66.098 34.129 C 64.450 39.226, 64.146 43.891, 64.068 65.250 L 64 84 60.182 84 C 53.777 84, 46.794 86.650, 42.488 90.715 C 37.071 95.829, 35.021 98.368, 34.498 100.613 C 34.256 101.651, 33.613 104.300, 33.070 106.500 C 31.450 113.066, 31.664 211.564, 33.310 217.036 C 34.694 221.635, 34.918 222.466, 35.115 223.750 C 35.179 224.162, 35.307 224.950, 35.401 225.500 C 36.097 229.583, 41.784 237.962, 46.883 242.418 C 48.194 243.563, 49.769 244.977, 50.383 245.559 C 52.476 247.544, 61.580 252.093, 63.794 252.259 C 65.007 252.351, 66 252.684, 66 253 C 66 254.272, 72.798 254.429, 129 254.464 C 183.648 254.498, 187.878 254.376, 193.238 252.617 C 196.394 251.581, 199.487 250.119, 200.110 249.367 C 200.734 248.615, 201.982 248, 202.883 248 C 203.785 248, 205.637 246.650, 207 245 C 208.363 243.350, 210.045 242, 210.739 242 C 211.433 242, 212.010 241.662, 212.023 241.250 C 212.036 240.838, 213.631 238.740, 215.568 236.589 C 217.505 234.438, 218.850 232.052, 218.557 231.287 C 218.263 230.522, 218.434 230.150, 218.937 230.461 C 219.798 230.993, 221.436 226.310, 223.997 215.992 C 224.774 212.861, 225.010 195.452, 224.770 158.992 C 224.449 110.414, 224.285 106.183, 222.560 102.250 C 221.535 99.912, 220.315 98, 219.848 98 C 219.382 98, 219 97.416, 219 96.703 C 219 93.640, 206.503 84.534, 203.182 85.177 C 202.807 85.250, 200.137 84.957, 197.250 84.526 L 192 83.742 191.875 62.871 C 191.714 36.062, 191.595 35.092, 187.447 27 C 182.951 18.227, 169.647 5.861, 163.428 4.674 C 162.368 4.471, 160.150 3.688, 158.500 2.934 C 156.247 1.903, 149.149 1.514, 130 1.370 C 108.413 1.208, 103.579 1.444, 98.500 2.908 M 105.048 27.912 C 104.249 28.438, 103.237 28.646, 102.798 28.375 C 102.359 28.104, 102 28.249, 102 28.697 C 102 29.145, 100.593 30.135, 98.873 30.896 C 96.493 31.950, 94.999 33.890, 92.623 39.015 L 89.500 45.751 89.794 63.875 L 90.087 82 128.044 82 L 166 82 166.118 63.750 C 166.184 53.712, 166.142 44.825, 166.026 44 C 165.910 43.175, 165.744 42.061, 165.657 41.524 C 165.571 40.987, 165.050 40.001, 164.500 39.334 C 163.950 38.666, 162.375 36.553, 161 34.639 C 156.056 27.756, 155.098 27.531, 129.500 27.228 C 116.053 27.069, 105.897 27.353, 105.048 27.912 M 111.599 151.600 C 107.704 155.384, 106.788 161.818, 109.710 164.863 C 111.761 167.001, 116.140 169.527, 117.250 169.212 C 117.662 169.096, 118 175.054, 118 182.453 C 118 190.182, 118.472 196.943, 119.110 198.343 C 121.992 204.668, 134.069 204.531, 136.983 198.140 C 137.752 196.454, 138.140 190.742, 138.057 182.338 L 137.926 169.175 141.027 168.494 C 142.919 168.078, 144.556 166.875, 145.225 165.406 C 145.828 164.083, 146.758 163, 147.292 163 C 147.857 163, 148.025 161.224, 147.693 158.750 C 147.285 155.704, 146.252 153.721, 144.046 151.750 C 142.353 150.238, 140.413 148.994, 139.734 148.986 C 139.055 148.978, 133.165 148.866, 126.644 148.736 L 114.789 148.500 111.599 151.600" stroke="none" fill="#540c8c" fill-rule="evenodd"/></svg>