<svg xmlns="http://www.w3.org/2000/svg" width="256" height="256" viewBox="0 0 256 256" version="1.1"><path d="M 88.813 47.683 C 89.534 47.972, 90.397 47.936, 90.729 47.604 C 91.061 47.272, 90.471 47.036, 89.417 47.079 C 88.252 47.127, 88.015 47.364, 88.813 47.683 M 165.813 47.683 C 166.534 47.972, 167.397 47.936, 167.729 47.604 C 168.061 47.272, 167.471 47.036, 166.417 47.079 C 165.252 47.127, 165.015 47.364, 165.813 47.683 M 75 54 C 74.099 54.582, 73.975 54.975, 74.691 54.985 C 75.346 54.993, 76.160 54.550, 76.500 54 C 77.267 52.758, 76.921 52.758, 75 54 M 179.733 54.124 C 180.412 54.808, 181.219 55.115, 181.526 54.807 C 181.834 54.499, 181.279 53.940, 180.293 53.564 C 178.868 53.022, 178.753 53.136, 179.733 54.124 M 171 58.393 C 171 58.609, 171.698 59.054, 172.552 59.382 C 173.442 59.723, 173.843 59.555, 173.493 58.989 C 172.906 58.038, 171 57.583, 171 58.393 M 193.500 64 C 194.495 65.100, 195.535 66, 195.810 66 C 196.085 66, 195.495 65.100, 194.500 64 C 193.505 62.900, 192.465 62, 192.190 62 C 191.915 62, 192.505 62.900, 193.500 64 M 56.924 68.750 L 54.500 71.500 57.250 69.076 C 59.820 66.810, 60.459 66, 59.674 66 C 59.495 66, 58.258 67.237, 56.924 68.750 M 186 67.378 C 186 67.585, 186.787 68.373, 187.750 69.128 C 189.336 70.371, 189.371 70.336, 188.128 68.750 C 186.821 67.084, 186 66.555, 186 67.378 M 45.195 126.500 C 45.215 128.150, 45.439 128.704, 45.693 127.731 C 45.947 126.758, 45.930 125.408, 45.656 124.731 C 45.382 124.054, 45.175 124.850, 45.195 126.500 M 62.500 159 C 63.495 160.100, 64.535 161, 64.810 161 C 65.085 161, 64.495 160.100, 63.500 159 C 62.505 157.900, 61.465 157, 61.190 157 C 60.915 157, 61.505 157.900, 62.500 159 M 57 164.378 C 57 164.585, 57.788 165.373, 58.750 166.128 C 60.336 167.371, 60.371 167.336, 59.128 165.750 C 57.821 164.084, 57 163.555, 57 164.378 M 72 167.430 C 72 167.705, 72.900 168.411, 74 169 C 75.100 169.589, 76 169.845, 76 169.570 C 76 169.295, 75.100 168.589, 74 168 C 72.900 167.411, 72 167.155, 72 167.430 M 87.079 186.583 C 87.127 187.748, 87.364 187.985, 87.683 187.188 C 87.972 186.466, 87.936 185.603, 87.604 185.271 C 87.272 184.939, 87.036 185.529, 87.079 186.583 M 98.139 201.033 C 96.841 202.115, 96.209 203, 96.734 203 C 97.260 203, 98.505 202.100, 99.500 201 C 101.787 198.473, 101.195 198.487, 98.139 201.033" stroke="none" fill="#4c0c8c" fill-rule="evenodd"/><path d="M 119.937 40.369 C 119.697 40.594, 116.350 41.059, 112.500 41.400 C 108.650 41.742, 103.250 42.722, 100.500 43.578 C 97.750 44.434, 94.601 45.325, 93.503 45.558 C 92.405 45.790, 91.355 46.435, 91.170 46.990 C 90.985 47.546, 89.956 48, 88.883 48 C 87.154 48, 84.927 49.045, 73.971 55 C 67.991 58.250, 53 71.841, 53 74.012 C 53 74.555, 52.554 75, 52.009 75 C 51.463 75, 49.620 77.475, 47.913 80.500 C 46.206 83.525, 44.402 86.252, 43.905 86.559 C 43.407 86.866, 43 88.024, 43 89.130 C 43 90.237, 42.364 91.779, 41.586 92.557 C 39.374 94.769, 37.705 103.575, 37.426 114.500 C 37.165 124.738, 38.552 135, 40.197 135 C 40.704 135, 40.835 135.458, 40.489 136.017 C 39.737 137.235, 45.897 150.459, 48.866 154 C 50.019 155.375, 51.421 157.044, 51.981 157.708 C 52.542 158.372, 53 159.253, 53 159.666 C 53 161.012, 67.427 173.916, 70.250 175.094 C 71.763 175.726, 73 176.665, 73 177.180 C 73 177.696, 73.450 177.840, 74 177.500 C 74.550 177.160, 75 177.387, 75 178.004 C 75 178.621, 77.920 180.449, 81.488 182.067 C 86.759 184.457, 87.960 185.431, 87.889 187.255 C 87.841 188.490, 88.101 192.650, 88.467 196.500 C 88.833 200.350, 89.164 205.075, 89.203 207 C 89.241 208.925, 89.716 211.063, 90.259 211.750 C 90.801 212.438, 90.910 213, 90.500 213 C 90.090 213, 90.324 213.685, 91.019 214.523 C 93.173 217.118, 96.030 215.265, 107.736 203.680 L 118.973 192.560 129.236 192.431 C 134.881 192.360, 142.836 191.731, 146.913 191.033 C 157.505 189.220, 178 181.865, 178 179.877 C 178 179.395, 178.338 179.110, 178.750 179.244 C 181.299 180.072, 201 164.103, 201 161.209 C 201 160.544, 201.428 160, 201.952 160 C 203.920 160, 216.564 138.897, 215.333 137.667 C 214.993 137.327, 215.202 136.461, 215.798 135.743 C 218.721 132.221, 219.694 110.896, 217.381 101.046 C 215.067 91.192, 208.939 79.274, 204.116 75.250 C 203.292 74.563, 203.003 74, 203.474 74 C 204.332 74, 199.229 68.881, 191.121 61.610 C 188.736 59.470, 184.920 56.670, 182.642 55.388 C 172.585 49.728, 168.934 48, 167.033 48 C 165.915 48, 165 47.616, 165 47.146 C 165 46.090, 152.113 42.264, 146 41.505 C 139.623 40.713, 120.461 39.878, 119.937 40.369 M 123.501 47.832 C 123.241 48.092, 121.560 48.424, 119.764 48.571 C 113.023 49.121, 106.824 50.116, 104.401 51.037 C 103.024 51.561, 100.476 52.240, 98.739 52.546 C 97.003 52.852, 95.001 53.584, 94.291 54.174 C 93.581 54.763, 93 54.910, 93 54.500 C 93 54.090, 92.396 54.256, 91.658 54.869 C 90.920 55.481, 90.020 55.687, 89.658 55.325 C 89.296 54.963, 89 55.218, 89 55.892 C 89 56.566, 88.550 56.840, 88 56.500 C 87.450 56.160, 87 56.310, 87 56.833 C 87 57.355, 85.851 58.072, 84.447 58.424 C 82.116 59.009, 78.805 61.095, 70.500 67.210 C 62.027 73.449, 52.425 85.711, 49.482 94.050 C 48.652 96.402, 47.533 98.858, 46.995 99.506 C 46.457 100.154, 46.284 100.950, 46.609 101.275 C 46.934 101.601, 46.848 102.437, 46.418 103.133 C 45.360 104.844, 45.094 107.824, 45.006 118.920 C 44.965 124.101, 45.327 128.601, 45.812 128.920 C 46.296 129.239, 46.990 130.718, 47.354 132.206 C 47.718 133.694, 48.537 136.169, 49.174 137.706 C 49.811 139.243, 50.426 140.838, 50.541 141.250 C 50.656 141.662, 50.860 142.338, 50.993 142.750 C 51.127 143.162, 51.172 143.871, 51.094 144.324 C 51.015 144.778, 51.340 144.908, 51.815 144.614 C 52.291 144.320, 53.877 146.402, 55.340 149.241 C 56.803 152.080, 58 153.983, 58 153.469 C 58 152.956, 59.072 154.103, 60.383 156.018 C 61.693 157.933, 64.843 161.046, 67.383 162.936 C 69.922 164.826, 72 166.690, 72 167.079 C 72 167.468, 76.612 170.128, 82.250 172.991 C 87.888 175.854, 93.147 178.815, 93.938 179.572 C 94.926 180.517, 95.395 183.300, 95.438 188.471 C 95.472 192.609, 95.791 195.996, 96.147 195.997 C 96.503 195.999, 96.720 197.575, 96.630 199.500 C 96.539 201.425, 96.674 203, 96.930 203 C 97.185 203, 101.346 198.867, 106.177 193.815 L 114.960 184.630 127.860 184.373 C 143.483 184.061, 155.926 181.442, 167.681 175.989 C 172.180 173.902, 176.118 172.451, 176.431 172.764 C 176.744 173.077, 177 172.820, 177 172.192 C 177 171.565, 178.423 170.316, 180.162 169.416 C 183.573 167.652, 189.449 162.559, 194.404 157.072 C 196.107 155.187, 198.287 152.824, 199.250 151.822 C 200.213 150.820, 201 149.582, 201 149.071 C 201 148.561, 201.568 147.548, 202.262 146.821 C 203.373 145.657, 206.209 140.354, 206.444 139 C 206.492 138.725, 206.961 137.825, 207.487 137 C 208.013 136.175, 208.526 135.050, 208.627 134.500 C 208.727 133.950, 209.096 132.150, 209.447 130.500 C 210.813 124.072, 211.122 121.301, 211.062 116 C 210.991 109.738, 210.501 105.183, 209.663 103 C 209.346 102.175, 208.192 98.886, 207.098 95.690 C 205.260 90.319, 201.515 83.697, 197.250 78.275 C 193.610 73.647, 190 69.663, 190 70.274 C 190 70.623, 188.918 69.917, 187.595 68.705 C 184.039 65.444, 182.159 64, 181.472 64 C 181.136 64, 178.898 62.650, 176.500 61 C 174.102 59.350, 171.465 58, 170.641 58 C 169.817 58, 168.436 57.293, 167.571 56.429 C 166.707 55.564, 166 55.169, 166 55.551 C 166 55.933, 165.325 55.685, 164.500 55 C 163.675 54.315, 163 54.046, 163 54.401 C 163 54.756, 161.952 54.359, 160.670 53.520 C 159.389 52.680, 158.050 52.284, 157.694 52.639 C 157.339 52.994, 156.362 52.716, 155.524 52.020 C 154.686 51.324, 154 51.024, 154 51.353 C 154 51.682, 152.896 51.531, 151.547 51.018 C 147.197 49.364, 124.543 46.791, 123.501 47.832" stroke="none" fill="#540c8c" fill-rule="evenodd"/></svg>