<svg xmlns="http://www.w3.org/2000/svg" width="256" height="256" viewBox="0 0 256 256" version="1.1"><path d="M 115.452 22.396 C 88.247 29.005, 71.210 54.322, 75.058 82.424 C 77.951 103.554, 94.742 122.246, 115.028 126.921 C 120.783 128.247, 135.217 128.247, 140.972 126.921 C 155.245 123.632, 170.182 111.381, 176.443 97.829 C 182.504 84.712, 183.137 68.276, 178.092 55.001 C 168.857 30.696, 140.992 16.192, 115.452 22.396 M 120.047 44.206 C 114.522 45.437, 105.998 50.790, 103.115 54.839 C 87.615 76.606, 101.913 106, 128 106 C 150.856 106, 165.603 83.131, 156.616 61.622 C 154.116 55.639, 151.076 52.023, 145.609 48.531 C 137.823 43.557, 129.377 42.128, 120.047 44.206 M 68.906 124.242 C 60.860 129.571, 45.656 144.602, 40.324 152.500 C 32.465 164.142, 26.162 178.587, 23.356 191.385 C 22.498 195.298, 21.556 205.122, 21.263 213.215 L 20.730 227.930 24.265 231.465 L 27.800 235 128 235 L 228.200 235 231.735 231.465 L 235.270 227.930 234.737 213.215 C 234.444 205.122, 233.502 195.298, 232.644 191.385 C 229.834 178.567, 223.517 164.101, 215.665 152.500 C 210.240 144.485, 195.032 129.427, 187.094 124.210 C 178.227 118.383, 174.815 118.456, 166.637 124.645 C 159.413 130.112, 150.830 134.321, 142.540 136.461 C 134.936 138.424, 121.133 138.435, 113.460 136.485 C 105.474 134.455, 94.591 129, 88.641 124.046 C 81.866 118.404, 77.660 118.446, 68.906 124.242 M 69.072 152.250 C 53.816 167.576, 45.547 184.996, 43.437 206.250 L 42.767 213 127.884 213 L 213 213 212.980 210.750 C 212.939 206.027, 210.868 194.313, 209.014 188.309 C 204.823 174.740, 196.154 160.901, 186.268 151.997 C 177.891 144.452, 177.229 144.265, 171.591 147.840 C 150.298 161.343, 115.958 163.163, 91.520 152.082 C 87.911 150.445, 83.661 148.183, 82.075 147.053 C 80.489 145.924, 78.538 145, 77.740 145 C 76.941 145, 73.041 148.262, 69.072 152.250" stroke="none" fill="#500e8c" fill-rule="evenodd"/></svg>