<svg xmlns="http://www.w3.org/2000/svg" width="256" height="256" viewBox="0 0 256 256" version="1.1"><path d="M 37.810 1.842 C 19.313 11.272, 6.531 27.891, 2.311 48 C -0.375 60.795, -0.094 82.779, 2.898 94 C 10.483 122.438, 27.144 148.312, 59.573 182.013 C 92.421 216.150, 110.600 230.879, 134.690 242.875 C 155.898 253.435, 169.315 256.544, 190 255.688 C 218.567 254.506, 234.498 246.621, 248.682 226.643 C 253.809 219.421, 254.981 217.003, 255.547 212.474 C 256.438 205.337, 255.474 199.312, 252.722 194.823 C 248.904 188.594, 207.959 147.486, 203 144.903 C 199.558 143.110, 196.855 142.552, 191.500 142.530 C 183.007 142.494, 179.705 144.215, 166.761 155.429 C 161.955 159.593, 157.818 163, 157.569 163 C 156.774 163, 143.700 154.717, 138 150.602 C 123.191 139.910, 111.704 127.698, 99.498 109.671 L 92.140 98.805 100.690 89.152 C 110.842 77.690, 113.980 71.751, 113.980 64 C 113.980 54.075, 111.639 50.823, 87.122 26.696 C 62.031 2.004, 59.129 0.026, 47.961 0.010 C 43.568 0.003, 40.238 0.604, 37.810 1.842 M 40 29.311 C 31.980 35.816, 27.579 43.760, 25.492 55.500 C 19.420 89.655, 33.634 119.780, 77.954 166.691 C 110.641 201.288, 136.317 220.011, 163 228.705 C 177.169 233.322, 198.089 232.932, 211.819 227.795 C 218.083 225.451, 227.050 217.281, 230.441 210.828 L 232.371 207.156 221.258 195.328 C 215.146 188.823, 206.089 179.486, 201.131 174.579 C 192.948 166.481, 191.950 165.787, 190.308 167.056 C 189.314 167.826, 183.405 172.965, 177.178 178.477 C 159.611 194.029, 162.248 192.762, 155.052 189.106 C 122.270 172.447, 98.417 151.364, 78.002 121.003 C 71.995 112.070, 64 97.037, 64 94.677 C 64 93.925, 64.970 92.453, 66.156 91.405 C 69.336 88.594, 90 64.903, 90 64.068 C 90 62.398, 50.069 24.001, 48.352 24.020 C 47.334 24.031, 43.575 26.412, 40 29.311" stroke="none" fill="#500e8c" fill-rule="evenodd"/></svg>