<svg xmlns="http://www.w3.org/2000/svg" width="256" height="256" viewBox="0 0 256 256" version="1.1"><path d="M 118.813 50.683 C 119.534 50.972, 120.397 50.936, 120.729 50.604 C 121.061 50.272, 120.471 50.036, 119.417 50.079 C 118.252 50.127, 118.015 50.364, 118.813 50.683 M 64.872 54.750 C 63.629 56.336, 63.664 56.371, 65.250 55.128 C 66.916 53.821, 67.445 53, 66.622 53 C 66.415 53, 65.627 53.788, 64.872 54.750 M 189 53.378 C 189 53.585, 189.787 54.373, 190.750 55.128 C 192.336 56.371, 192.371 56.336, 191.128 54.750 C 189.821 53.084, 189 52.555, 189 53.378 M 86.114 73.011 C 84.881 75.205, 84.089 77, 84.354 77 C 85.122 77, 89.275 69.942, 88.792 69.459 C 88.552 69.219, 87.347 70.817, 86.114 73.011 M 118.731 148.920 C 118.296 150.583, 118.426 150.974, 119.168 150.232 C 119.750 149.650, 120.028 148.585, 119.788 147.863 C 119.538 147.114, 119.085 147.568, 118.731 148.920 M 121.750 183.740 C 125.188 183.936, 130.813 183.936, 134.250 183.740 C 137.688 183.545, 134.875 183.385, 128 183.385 C 121.125 183.385, 118.313 183.545, 121.750 183.740 M 53 189.378 C 53 189.585, 53.788 190.373, 54.750 191.128 C 56.336 192.371, 56.371 192.336, 55.128 190.750 C 53.821 189.084, 53 188.555, 53 189.378 M 200.872 190.750 C 199.629 192.336, 199.664 192.371, 201.250 191.128 C 202.213 190.373, 203 189.585, 203 189.378 C 203 188.555, 202.179 189.084, 200.872 190.750 M 121.750 205.740 C 125.188 205.936, 130.813 205.936, 134.250 205.740 C 137.688 205.545, 134.875 205.385, 128 205.385 C 121.125 205.385, 118.313 205.545, 121.750 205.740" stroke="none" fill="#4c0c8c" fill-rule="evenodd"/><path d="M 112.817 8.515 C 112.643 8.688, 110.485 9.131, 108.021 9.498 C 105.558 9.865, 103.230 10.358, 102.848 10.594 C 102.467 10.829, 99.982 11.439, 97.327 11.947 C 94.672 12.456, 90.700 13.655, 88.500 14.612 C 86.300 15.569, 83.691 16.498, 82.702 16.677 C 79.669 17.225, 63.817 25.970, 58 30.304 C 51.075 35.463, 35.799 50.764, 30.349 58 C 26.010 63.761, 17.235 79.615, 16.677 82.702 C 16.498 83.691, 15.651 86.114, 14.795 88.087 C 12.841 92.590, 12.220 94.624, 11.492 98.916 C 11.174 100.795, 10.745 102.604, 10.539 102.937 C 7.862 107.269, 7.907 148.805, 10.594 153.152 C 10.829 153.533, 11.439 156.018, 11.947 158.673 C 12.456 161.328, 13.655 165.300, 14.612 167.500 C 15.569 169.700, 16.498 172.309, 16.677 173.298 C 17.225 176.331, 25.970 192.183, 30.304 198 C 35.463 204.925, 50.764 220.201, 58 225.651 C 63.761 229.990, 79.615 238.765, 82.702 239.323 C 83.691 239.502, 86.114 240.349, 88.087 241.205 C 92.590 243.159, 94.624 243.780, 98.916 244.508 C 100.795 244.826, 102.604 245.255, 102.937 245.461 C 107.206 248.100, 148.794 248.100, 153.063 245.461 C 153.396 245.255, 155.205 244.826, 157.084 244.508 C 161.376 243.780, 163.410 243.159, 167.913 241.205 C 169.886 240.349, 172.309 239.502, 173.298 239.323 C 176.385 238.765, 192.239 229.990, 198 225.651 C 205.236 220.201, 220.537 204.925, 225.696 198 C 230.030 192.183, 238.775 176.331, 239.323 173.298 C 239.502 172.309, 240.431 169.700, 241.388 167.500 C 242.345 165.300, 243.544 161.328, 244.053 158.673 C 244.561 156.018, 245.171 153.533, 245.406 153.152 C 248.093 148.805, 248.138 107.269, 245.461 102.937 C 245.255 102.604, 244.826 100.795, 244.508 98.916 C 243.780 94.624, 243.159 92.590, 241.205 88.087 C 240.349 86.114, 239.502 83.691, 239.323 82.702 C 238.765 79.615, 229.990 63.761, 225.651 58 C 220.201 50.764, 204.925 35.463, 198 30.304 C 192.183 25.970, 176.331 17.225, 173.298 16.677 C 172.309 16.498, 169.700 15.569, 167.500 14.612 C 165.300 13.655, 161.475 12.482, 159 12.005 C 156.525 11.528, 153.825 10.895, 153 10.598 C 149.012 9.162, 144.243 8.735, 129.317 8.478 C 120.416 8.325, 112.991 8.341, 112.817 8.515 M 102 35.403 C 96.225 37.115, 90.095 39.282, 88.377 40.218 C 86.659 41.154, 84.972 41.638, 84.627 41.293 C 84.282 40.949, 84 41.192, 84 41.833 C 84 42.475, 83.662 42.893, 83.250 42.763 C 82.838 42.632, 80.362 44.004, 77.750 45.811 C 75.138 47.618, 73 48.870, 73 48.593 C 73 48.317, 71.932 49.083, 70.627 50.295 C 69.322 51.508, 66.651 53.625, 64.691 55 C 62.731 56.375, 58.562 60.763, 55.426 64.750 C 52.290 68.737, 49.261 72, 48.696 72 C 48.130 72, 47.949 72.282, 48.294 72.627 C 48.639 72.972, 47.482 75.335, 45.723 77.877 C 43.965 80.420, 42.632 82.838, 42.763 83.250 C 42.893 83.662, 42.523 84, 41.941 84 C 41.359 84, 41.110 84.369, 41.389 84.821 C 41.668 85.272, 41.103 86.960, 40.133 88.571 C 39.164 90.182, 37.776 93.649, 37.048 96.276 C 36.321 98.902, 35.330 101.296, 34.847 101.595 C 34.363 101.894, 34.194 102.505, 34.471 102.953 C 34.748 103.401, 34.353 105.833, 33.593 108.357 C 32.670 111.425, 32.224 118.010, 32.249 128.223 C 32.283 142.351, 32.520 144.290, 35.401 154 C 37.115 159.775, 39.282 165.905, 40.218 167.623 C 41.154 169.341, 41.638 171.028, 41.293 171.373 C 40.949 171.718, 41.192 172, 41.833 172 C 42.475 172, 42.893 172.338, 42.763 172.750 C 42.632 173.162, 44.004 175.637, 45.811 178.250 C 47.618 180.862, 48.870 183, 48.593 183 C 48.317 183, 49.083 184.068, 50.295 185.373 C 51.508 186.678, 53.625 189.349, 55 191.309 C 56.375 193.269, 60.763 197.438, 64.750 200.574 C 68.738 203.710, 72 206.739, 72 207.304 C 72 207.870, 72.282 208.051, 72.627 207.706 C 72.972 207.361, 75.335 208.518, 77.877 210.277 C 80.420 212.035, 82.838 213.368, 83.250 213.237 C 83.662 213.107, 84 213.477, 84 214.059 C 84 214.641, 84.369 214.890, 84.821 214.611 C 85.272 214.332, 86.960 214.897, 88.571 215.867 C 90.182 216.836, 93.649 218.224, 96.276 218.952 C 98.902 219.679, 101.296 220.670, 101.595 221.153 C 101.894 221.637, 102.505 221.806, 102.953 221.529 C 103.401 221.252, 105.838 221.649, 108.368 222.410 C 114.645 224.299, 141.355 224.299, 147.632 222.410 C 150.162 221.649, 152.599 221.252, 153.047 221.529 C 153.495 221.806, 154.106 221.637, 154.405 221.153 C 154.704 220.670, 157.098 219.679, 159.724 218.952 C 162.351 218.224, 165.818 216.836, 167.429 215.867 C 169.040 214.897, 170.728 214.332, 171.179 214.611 C 171.631 214.890, 172 214.641, 172 214.059 C 172 213.477, 172.338 213.107, 172.750 213.237 C 173.162 213.368, 175.580 212.035, 178.123 210.277 C 180.665 208.518, 183.028 207.361, 183.373 207.706 C 183.718 208.051, 184 207.870, 184 207.304 C 184 206.739, 187.263 203.710, 191.250 200.574 C 195.238 197.438, 199.625 193.269, 201 191.309 C 202.375 189.349, 204.492 186.678, 205.705 185.373 C 206.917 184.068, 207.683 183, 207.407 183 C 207.130 183, 208.382 180.862, 210.189 178.250 C 211.996 175.637, 213.368 173.162, 213.237 172.750 C 213.107 172.338, 213.525 172, 214.167 172 C 214.808 172, 215.051 171.718, 214.707 171.373 C 214.362 171.028, 214.846 169.341, 215.782 167.623 C 216.718 165.905, 218.885 159.775, 220.599 154 C 223.480 144.290, 223.717 142.351, 223.751 128.223 C 223.776 118.010, 223.330 111.425, 222.407 108.357 C 221.647 105.833, 221.252 103.401, 221.529 102.953 C 221.806 102.505, 221.637 101.894, 221.153 101.595 C 220.670 101.296, 219.679 98.902, 218.952 96.276 C 218.224 93.649, 216.836 90.182, 215.867 88.571 C 214.897 86.960, 214.332 85.272, 214.611 84.821 C 214.890 84.369, 214.641 84, 214.059 84 C 213.477 84, 213.107 83.662, 213.237 83.250 C 213.368 82.838, 212.035 80.420, 210.277 77.877 C 208.518 75.335, 207.361 72.972, 207.706 72.627 C 208.051 72.282, 207.870 72, 207.304 72 C 206.739 72, 203.710 68.737, 200.574 64.750 C 197.438 60.763, 193.269 56.375, 191.309 55 C 189.349 53.625, 186.678 51.508, 185.373 50.295 C 184.068 49.083, 183 48.317, 183 48.593 C 183 48.870, 180.862 47.618, 178.250 45.811 C 175.637 44.004, 173.162 42.632, 172.750 42.763 C 172.338 42.893, 172 42.475, 172 41.833 C 172 41.192, 171.718 40.949, 171.373 41.293 C 171.028 41.638, 169.341 41.154, 167.623 40.218 C 165.905 39.282, 159.775 37.115, 154 35.403 C 144.223 32.504, 142.433 32.289, 128 32.289 C 113.567 32.289, 111.777 32.504, 102 35.403 M 125.830 49.504 C 125.572 49.761, 123.593 50.150, 121.431 50.367 C 119.269 50.585, 116.375 51.210, 115 51.754 C 113.625 52.299, 111.069 53.056, 109.319 53.437 C 107.570 53.817, 105.602 54.775, 104.947 55.564 C 104.291 56.354, 103.224 57, 102.576 57 C 101.028 57, 89.008 67.948, 88.974 69.388 C 88.960 70, 87.385 72.954, 85.474 75.954 C 81.487 82.212, 80.865 86.929, 84 87.125 C 86.326 87.270, 86.812 87.371, 89.500 88.260 C 90.600 88.624, 92.625 89.118, 94 89.359 C 95.375 89.599, 98.136 90.107, 100.135 90.488 C 103.690 91.164, 103.822 91.075, 106.130 86.454 C 111.875 74.950, 127.406 70.143, 138.605 76.403 C 141.048 77.768, 142.773 78.349, 142.437 77.693 C 142.101 77.037, 142.797 77.625, 143.984 79 C 149.448 85.331, 152.515 96.180, 150.768 103 C 149.623 107.472, 145.152 113.530, 136.584 122.219 C 131.313 127.565, 127 132.434, 127 133.041 C 127 133.647, 126.321 134.822, 125.491 135.652 C 124.661 136.482, 124.237 137.575, 124.550 138.081 C 124.862 138.586, 124.679 139, 124.142 139 C 123.605 139, 122.413 141.138, 121.494 143.750 C 120.575 146.363, 119.397 149.306, 118.877 150.291 C 118.358 151.276, 118.175 152.475, 118.472 152.955 C 118.769 153.436, 118.569 153.980, 118.026 154.165 C 117.484 154.349, 116.771 157.417, 116.443 160.981 C 116.115 164.546, 115.768 167.921, 115.673 168.481 C 115.484 169.597, 132.755 169.990, 136.984 168.966 C 138.771 168.533, 139.525 167.624, 139.671 165.722 C 139.929 162.368, 143.147 150.663, 143.993 150 C 144.345 149.725, 146.022 147.475, 147.721 145 C 149.421 142.525, 154.228 137.386, 158.405 133.580 C 162.582 129.774, 166 126.203, 166 125.644 C 166 125.086, 166.832 123.700, 167.848 122.564 C 174.066 115.618, 176.691 95.430, 172.994 82.993 C 171.931 79.415, 169.765 74.465, 168.183 71.993 C 164.803 66.715, 155.109 57.487, 151.860 56.456 C 150.613 56.060, 148.990 55.132, 148.252 54.394 C 146.698 52.841, 140.584 51.055, 134.635 50.418 C 132.361 50.174, 129.554 49.764, 128.398 49.506 C 127.243 49.248, 126.087 49.247, 125.830 49.504 M 116 194.500 L 116 205 128 205 L 140 205 140 194.500 L 140 184 128 184 L 116 184 116 194.500" stroke="none" fill="#540c8c" fill-rule="evenodd"/></svg>