<svg xmlns="http://www.w3.org/2000/svg" width="256" height="256" viewBox="0 0 256 256" version="1.1"><path d="M 52.750 0.662 C 53.438 0.940, 54.563 0.940, 55.250 0.662 C 55.938 0.385, 55.375 0.158, 54 0.158 C 52.625 0.158, 52.063 0.385, 52.750 0.662 M 200.750 0.662 C 201.438 0.940, 202.563 0.940, 203.250 0.662 C 203.938 0.385, 203.375 0.158, 202 0.158 C 200.625 0.158, 200.063 0.385, 200.750 0.662 M 116 179 C 115.099 179.582, 114.975 179.975, 115.691 179.985 C 116.346 179.993, 117.160 179.550, 117.500 179 C 118.267 177.758, 117.921 177.758, 116 179 M 138.733 179.124 C 139.412 179.808, 140.219 180.115, 140.526 179.807 C 140.834 179.499, 140.279 178.940, 139.293 178.564 C 137.868 178.022, 137.753 178.136, 138.733 179.124 M 104.507 187.989 C 104.157 188.555, 104.558 188.723, 105.448 188.382 C 107.180 187.717, 107.497 187, 106.059 187 C 105.541 187, 104.843 187.445, 104.507 187.989 M 92.500 200 C 92.160 200.550, 92.359 201, 92.941 201 C 93.523 201, 94 200.550, 94 200 C 94 199.450, 93.802 199, 93.559 199 C 93.316 199, 92.840 199.450, 92.500 200" stroke="none" fill="#4c0c8c" fill-rule="evenodd"/><path d="M 44.537 2.996 C 41.808 4.542, 38.770 6.863, 37.788 8.154 C 36.805 9.444, 35.631 10.957, 35.180 11.516 C 32.148 15.266, 32.019 20.150, 32.030 130.566 L 32.042 241.889 34.261 246.048 C 36.309 249.884, 41.980 255.201, 42.015 253.318 C 42.024 252.868, 42.395 253.074, 42.841 253.776 C 44.043 255.671, 53.108 256.449, 57.415 255.028 C 60.175 254.117, 68.844 246.110, 91.803 223.266 L 122.500 192.721 128 192.721 L 133.500 192.721 164.197 223.266 C 187.061 246.015, 195.831 254.119, 198.564 255.021 C 203.016 256.491, 211.881 255.798, 213.091 253.887 C 213.574 253.124, 213.976 252.868, 213.985 253.318 C 214.020 255.201, 219.691 249.884, 221.739 246.048 L 223.958 241.889 223.970 130.566 C 223.981 20.313, 223.851 15.352, 220.845 11.516 C 217.295 6.983, 214.854 4.828, 210.771 2.620 L 206.042 0.063 127.771 0.124 L 49.500 0.184 44.537 2.996 M 51.250 16.989 C 49.462 18.079, 47.996 19.765, 47.991 20.735 C 47.562 107.473, 48.241 239.531, 49.119 240.074 C 51.513 241.553, 54.470 239.214, 68.943 224.396 C 77.212 215.928, 84.433 209, 84.989 209 C 85.545 209, 85.888 208.634, 85.750 208.186 C 85.455 207.225, 91.464 201, 92.686 201 C 93.148 201, 93.986 199.987, 94.549 198.750 C 95.113 197.512, 96.153 196.624, 96.861 196.775 C 97.569 196.926, 97.910 196.664, 97.619 196.193 C 97.023 195.229, 104.501 188, 106.093 188 C 106.657 188, 106.838 187.547, 106.496 186.993 C 106.153 186.439, 106.689 185.675, 107.687 185.296 C 108.684 184.917, 110.320 183.570, 111.323 182.303 C 112.325 181.036, 113.803 180, 114.608 180 C 115.412 180, 117.161 179.285, 118.494 178.412 C 121.819 176.233, 134.181 176.233, 137.506 178.412 C 138.839 179.285, 140.588 180, 141.392 180 C 142.197 180, 143.788 181.186, 144.927 182.635 C 146.067 184.084, 147 184.899, 147 184.445 C 147 183.992, 151.084 187.869, 156.075 193.060 C 177.436 215.279, 202.398 239.871, 204.022 240.296 C 204.988 240.548, 206.274 240.448, 206.881 240.074 C 207.759 239.531, 208.438 107.473, 208.009 20.735 C 208.004 19.765, 206.538 18.079, 204.750 16.989 C 201.588 15.061, 199.512 15.007, 128 15.007 C 56.488 15.007, 54.412 15.061, 51.250 16.989" stroke="none" fill="#540c8c" fill-rule="evenodd"/></svg>