<svg xmlns="http://www.w3.org/2000/svg" width="256" height="256" viewBox="0 0 256 256" version="1.1"><path d="M 110.459 12.067 C 110.096 12.653, 110.014 13.348, 110.276 13.610 C 110.538 13.872, 111.019 13.392, 111.345 12.543 C 112.021 10.781, 111.445 10.471, 110.459 12.067 M 157.079 15.583 C 157.127 16.748, 157.364 16.985, 157.683 16.188 C 157.972 15.466, 157.936 14.603, 157.604 14.271 C 157.272 13.939, 157.036 14.529, 157.079 15.583 M 150 33.941 C 150 34.459, 150.445 35.157, 150.989 35.493 C 151.555 35.843, 151.723 35.442, 151.382 34.552 C 150.717 32.820, 150 32.503, 150 33.941 M 52.564 36.707 C 52.022 38.132, 52.136 38.247, 53.124 37.267 C 53.808 36.588, 54.115 35.781, 53.807 35.474 C 53.499 35.166, 52.940 35.721, 52.564 36.707 M 35.872 38.750 C 34.629 40.336, 34.664 40.371, 36.250 39.128 C 37.212 38.373, 38 37.585, 38 37.378 C 38 36.555, 37.179 37.084, 35.872 38.750 M 49.500 39 C 49.160 39.550, 49.359 40, 49.941 40 C 50.523 40, 51 39.550, 51 39 C 51 38.450, 50.802 38, 50.559 38 C 50.316 38, 49.840 38.450, 49.500 39 M 111.500 80 C 110.239 80.542, 110.055 80.859, 111 80.859 C 111.825 80.859, 113.400 80.473, 114.500 80 C 115.761 79.458, 115.945 79.141, 115 79.141 C 114.175 79.141, 112.600 79.527, 111.500 80 M 141.500 80 C 142.600 80.473, 144.175 80.859, 145 80.859 C 145.945 80.859, 145.761 80.542, 144.500 80 C 143.400 79.527, 141.825 79.141, 141 79.141 C 140.055 79.141, 140.239 79.458, 141.500 80 M 207.564 88.293 C 207.940 89.279, 208.499 89.834, 208.807 89.526 C 209.115 89.219, 208.808 88.412, 208.124 87.733 C 207.136 86.753, 207.022 86.868, 207.564 88.293 M 219.564 91.293 C 219.940 92.279, 220.499 92.834, 220.807 92.526 C 221.115 92.219, 220.808 91.412, 220.124 90.733 C 219.136 89.753, 219.022 89.868, 219.564 91.293 M 225.813 95.683 C 226.534 95.972, 227.397 95.936, 227.729 95.604 C 228.061 95.272, 227.471 95.036, 226.417 95.079 C 225.252 95.127, 225.015 95.364, 225.813 95.683 M 79.731 111.920 C 79.296 113.583, 79.426 113.974, 80.168 113.232 C 80.750 112.650, 81.028 111.585, 80.788 110.863 C 80.538 110.114, 80.085 110.568, 79.731 111.920 M 175 111.441 C 175 112.234, 175.408 113.134, 175.907 113.442 C 176.405 113.751, 176.578 113.102, 176.290 112.001 C 175.679 109.666, 175 109.371, 175 111.441 M 176.564 118.293 C 176.940 119.279, 177.499 119.834, 177.807 119.526 C 178.115 119.219, 177.808 118.412, 177.124 117.733 C 176.136 116.753, 176.022 116.868, 176.564 118.293 M 178.232 128 C 178.232 129.925, 178.438 130.713, 178.689 129.750 C 178.941 128.787, 178.941 127.213, 178.689 126.250 C 178.438 125.287, 178.232 126.075, 178.232 128 M 79.141 141 C 79.141 141.825, 79.527 143.400, 80 144.500 C 80.542 145.761, 80.859 145.945, 80.859 145 C 80.859 144.175, 80.473 142.600, 80 141.500 C 79.458 140.239, 79.141 140.055, 79.141 141 M 175.571 142.571 C 175.204 144.037, 175.096 145.429, 175.331 145.665 C 175.567 145.900, 176.061 144.894, 176.429 143.429 C 176.796 141.963, 176.904 140.571, 176.669 140.335 C 176.433 140.100, 175.939 141.106, 175.571 142.571 M 250.872 153.750 C 249.629 155.336, 249.664 155.371, 251.250 154.128 C 252.916 152.821, 253.445 152, 252.622 152 C 252.415 152, 251.627 152.787, 250.872 153.750 M 110 175.383 C 110 175.594, 110.901 176.002, 112.001 176.290 C 113.102 176.578, 113.751 176.405, 113.442 175.907 C 112.904 175.036, 110 174.594, 110 175.383 M 142.558 175.907 C 142.249 176.405, 142.898 176.578, 143.999 176.290 C 146.334 175.679, 146.629 175, 144.559 175 C 143.766 175, 142.866 175.408, 142.558 175.907 M 117.733 177.124 C 118.412 177.808, 119.219 178.115, 119.526 177.807 C 119.834 177.499, 119.279 176.940, 118.293 176.564 C 116.868 176.022, 116.753 176.136, 117.733 177.124 M 137 177 C 136.099 177.582, 135.975 177.975, 136.691 177.985 C 137.346 177.993, 138.160 177.550, 138.500 177 C 139.267 175.758, 138.921 175.758, 137 177 M 126.250 178.689 C 127.213 178.941, 128.787 178.941, 129.750 178.689 C 130.713 178.438, 129.925 178.232, 128 178.232 C 126.075 178.232, 125.287 178.438, 126.250 178.689 M 25.500 190 C 25.160 190.550, 25.359 191, 25.941 191 C 26.523 191, 27 190.550, 27 190 C 27 189.450, 26.802 189, 26.559 189 C 26.316 189, 25.840 189.450, 25.500 190 M 229.405 207.250 L 227.500 209.500 229.750 207.595 C 230.988 206.547, 232 205.535, 232 205.345 C 232 204.545, 231.195 205.136, 229.405 207.250 M 42.500 210 C 43.495 211.100, 44.535 212, 44.810 212 C 45.085 212, 44.495 211.100, 43.500 210 C 42.505 208.900, 41.465 208, 41.190 208 C 40.915 208, 41.505 208.900, 42.500 210 M 174 208.393 C 174 208.609, 174.698 209.054, 175.552 209.382 C 176.442 209.723, 176.843 209.555, 176.493 208.989 C 175.906 208.038, 174 207.583, 174 208.393 M 156 212 C 155.175 212.533, 154.950 212.969, 155.500 212.969 C 156.050 212.969, 157.175 212.533, 158 212 C 158.825 211.467, 159.050 211.031, 158.500 211.031 C 157.950 211.031, 156.825 211.467, 156 212 M 151 216.059 C 151 216.641, 151.450 216.840, 152 216.500 C 152.550 216.160, 153 215.684, 153 215.441 C 153 215.198, 152.550 215, 152 215 C 151.450 215, 151 215.477, 151 216.059 M 37 218.378 C 37 218.585, 37.788 219.373, 38.750 220.128 C 40.336 221.371, 40.371 221.336, 39.128 219.750 C 37.821 218.084, 37 217.555, 37 218.378" stroke="none" fill="#4c0c8c" fill-rule="evenodd"/><path d="M 106.357 1.387 C 102.608 3.470, 101 5.192, 101 7.122 C 101 8.155, 100.625 9, 100.167 9 C 99.708 9, 99.268 9.563, 99.188 10.250 C 98.853 13.127, 98.320 15.592, 97.728 17 C 97.381 17.825, 96.857 20.075, 96.563 22 C 95.607 28.276, 93.517 35.506, 92.740 35.230 C 92.321 35.081, 90.593 35.676, 88.899 36.552 C 87.205 37.428, 85.180 37.899, 84.399 37.600 C 83.618 37.300, 82.687 37.083, 82.329 37.117 C 81.972 37.151, 81.279 36.464, 80.790 35.590 C 80.301 34.715, 79.318 34, 78.605 34 C 77.893 34, 76.506 33.111, 75.523 32.026 C 74.540 30.940, 72.783 29.762, 71.618 29.409 C 70.453 29.057, 67.925 27.583, 66 26.134 C 61.904 23.052, 53.752 22.452, 50.588 25 C 46.230 28.509, 26 48.957, 26 49.853 C 26 50.392, 25.482 51.006, 24.849 51.217 C 23.242 51.753, 22.370 63, 23.935 63 C 24.586 63, 24.863 63.412, 24.552 63.915 C 24.241 64.419, 25.155 66.219, 26.582 67.915 C 28.010 69.612, 28.906 71, 28.575 71 C 27.831 71, 33.209 79.371, 34.250 79.833 C 34.663 80.017, 35 80.749, 35 81.461 C 35 82.173, 35.681 83.320, 36.512 84.010 C 37.663 84.965, 37.753 85.593, 36.890 86.633 C 36.266 87.385, 36.051 88, 36.413 88 C 36.774 88, 36.508 89.013, 35.821 90.250 C 35.133 91.487, 34.555 92.838, 34.535 93.250 C 34.516 93.662, 34.169 94.018, 33.764 94.039 C 33.359 94.061, 31.262 94.702, 29.104 95.463 C 26.946 96.225, 24.978 96.644, 24.729 96.396 C 24.481 96.147, 22.977 96.448, 21.389 97.064 C 19.800 97.680, 17.375 98.368, 16 98.592 C 14.625 98.817, 12.150 99.226, 10.500 99.501 C 7.240 100.044, 2.948 103.303, 1.238 106.534 C 0.589 107.760, 0.114 116.262, 0.044 127.930 C -0.072 147.102, -0.048 147.330, 2.478 151.146 C 3.952 153.374, 5.831 155, 6.931 155 C 7.977 155, 8.983 155.428, 9.167 155.951 C 9.350 156.474, 11.092 157.064, 13.037 157.260 C 14.982 157.457, 17.007 157.878, 17.537 158.195 C 18.067 158.513, 21.200 159.321, 24.500 159.991 C 33.427 161.805, 36 162.967, 36 165.187 C 36 166.256, 36.472 168.014, 37.049 169.092 C 37.868 170.622, 37.648 171.685, 36.049 173.931 C 34.922 175.514, 34 177.302, 34 177.904 C 34 178.507, 33.523 179, 32.941 179 C 32.359 179, 32.123 179.390, 32.417 179.866 C 32.712 180.343, 32.063 181.538, 30.976 182.521 C 29.889 183.505, 29 184.915, 29 185.655 C 29 186.395, 28.550 187, 28 187 C 27.450 187, 27 187.707, 27 188.571 C 27 189.436, 26.321 190.822, 25.491 191.652 C 24.661 192.482, 24.237 193.575, 24.550 194.081 C 24.862 194.586, 24.634 195, 24.043 195 C 22.608 195, 23.015 200.818, 24.690 204.228 C 26.258 207.424, 46.122 227.772, 50.500 230.668 C 55.099 233.710, 61.740 233.666, 66.314 230.561 C 68.390 229.153, 70.434 228, 70.856 228 C 71.278 228, 72.608 227.082, 73.811 225.961 C 75.015 224.840, 76 224.218, 76 224.580 C 76 224.941, 77.463 224.156, 79.250 222.835 C 83.320 219.826, 88 217.750, 88 218.954 C 88 219.863, 90.683 221.046, 92.410 220.898 C 93.644 220.793, 95.263 223.847, 95.621 226.954 C 95.782 228.354, 96.086 230.175, 96.297 231 C 96.507 231.825, 97.011 234.300, 97.417 236.500 C 98.456 242.131, 101.242 250, 102.198 250 C 102.639 250, 102.888 250.490, 102.750 251.088 C 102.613 251.686, 104.068 253.036, 105.984 254.088 C 109.082 255.788, 111.652 256, 129.158 256 C 148.768 256, 148.859 255.990, 151.857 253.467 C 155.125 250.717, 157.134 245.893, 158.506 237.500 C 158.686 236.400, 158.905 235.500, 158.993 235.500 C 159.215 235.500, 159.967 232.063, 160.492 228.646 C 160.734 227.076, 161.176 225.020, 161.476 224.076 C 162.041 222.296, 167.945 219, 170.569 219 C 172.089 219, 176.022 221.257, 179.282 224 C 180.263 224.825, 181.337 225.349, 181.671 225.165 C 182.004 224.980, 182.552 225.206, 182.888 225.667 C 184.196 227.460, 191.838 232.093, 194.965 232.990 C 196.858 233.533, 198.944 233.565, 199.878 233.065 C 200.770 232.588, 201.725 232.184, 202 232.169 C 205.411 231.976, 221.397 217.326, 230.206 206.321 C 235.273 199.992, 234.310 192.275, 227.433 184.103 C 225.997 182.396, 225.109 181, 225.459 181 C 226.174 181, 219.978 171.656, 218.975 171.222 C 218.622 171.069, 219.441 168.707, 220.794 165.972 C 222.948 161.619, 224.417 160.452, 227.215 160.870 C 227.609 160.929, 229.133 160.520, 230.602 159.961 C 232.071 159.403, 234.899 158.711, 236.886 158.425 C 238.874 158.138, 241.175 157.641, 242 157.319 C 242.825 156.998, 244.499 156.602, 245.720 156.439 C 248.903 156.014, 255.725 150.234, 256.449 147.347 C 257.280 144.036, 257.023 106.870, 256.173 107.383 C 255.357 107.877, 252.928 105.405, 253.584 104.749 C 254.199 104.134, 251.883 102.251, 249.997 101.832 C 249.173 101.649, 248.265 101.190, 247.979 100.811 C 247.692 100.432, 246.342 99.875, 244.979 99.573 C 243.615 99.270, 240.475 98.567, 238 98.009 C 235.525 97.451, 231.051 96.555, 228.057 96.018 C 222.168 94.962, 220.196 93.613, 219.537 90.191 C 219.304 88.982, 218.837 87.545, 218.499 86.998 C 217.816 85.893, 220.302 81.005, 223.750 76.673 C 224.988 75.119, 226 73.412, 226 72.881 C 226 72.351, 226.884 70.967, 227.965 69.807 C 229.046 68.646, 229.695 67.315, 229.406 66.849 C 229.118 66.382, 229.310 66, 229.833 66 C 230.918 66, 232.343 61.705, 232.488 58 C 232.645 53.992, 230.990 50.838, 225.928 45.500 C 212.587 31.432, 206.307 25.209, 204.468 24.237 C 200.623 22.205, 192.607 23.456, 186.842 26.989 C 183.904 28.789, 181.169 30.766, 180.765 31.381 C 180.361 31.996, 180.024 32.109, 180.015 31.631 C 180.007 31.154, 178.382 31.997, 176.404 33.505 C 174.427 35.013, 171.432 36.356, 169.749 36.488 C 166.546 36.740, 160.810 34.116, 161.638 32.777 C 161.902 32.350, 161.716 32, 161.226 32 C 160.735 32, 160.322 31.438, 160.308 30.750 C 160.240 27.355, 158.791 19.477, 157.942 17.892 C 157.415 16.907, 156.833 14.841, 156.648 13.301 C 156.045 8.269, 154.029 4.541, 150.673 2.250 C 147.519 0.097, 146.536 0.004, 127.938 0.098 C 114.940 0.164, 107.790 0.591, 106.357 1.387 M 111.463 11.500 C 110.789 12.050, 109.943 14.482, 109.582 16.905 C 109.222 19.327, 108.624 21.799, 108.254 22.398 C 107.884 22.996, 107.439 25.270, 107.264 27.451 C 107.089 29.631, 106.620 31.660, 106.223 31.958 C 105.825 32.256, 105.455 33.063, 105.400 33.750 C 105.345 34.438, 105.233 35.850, 105.150 36.889 C 104.960 39.279, 101.966 43.029, 99.999 43.342 C 99.174 43.474, 95.876 44.792, 92.670 46.272 C 86.690 49.032, 83.869 49.269, 81.786 47.186 C 81.134 46.534, 80.127 45.992, 79.550 45.982 C 78.562 45.965, 70.937 41.248, 68.292 39.018 C 67.628 38.458, 66.831 38, 66.521 38 C 66.211 38, 64.237 36.862, 62.136 35.471 C 58.520 33.078, 55 32.928, 55 35.166 C 55 35.690, 54.582 35.860, 54.072 35.544 C 53.562 35.229, 52.859 35.868, 52.511 36.965 C 52.163 38.062, 51.363 38.856, 50.735 38.730 C 50.106 38.603, 49.570 38.972, 49.545 39.548 C 49.520 40.125, 46.012 44.141, 41.750 48.474 C 37.487 52.806, 34 56.747, 34 57.233 C 34 58.234, 38.102 65.758, 40.855 69.806 C 48.554 81.128, 50.186 84.608, 48.908 86.988 C 48.462 87.819, 47.354 90.300, 46.446 92.500 C 43.357 99.988, 42.501 101.499, 40.500 103 C 39.400 103.825, 37.825 104.546, 37 104.602 C 36.175 104.659, 34.491 105.025, 33.259 105.417 C 32.026 105.809, 30.001 106.326, 28.759 106.567 C 27.516 106.808, 23.125 107.802, 19 108.776 L 11.500 110.547 11.227 127.726 C 10.966 144.093, 11.049 144.956, 12.977 145.987 C 14.089 146.583, 15 146.866, 15 146.616 C 15 146.366, 16.631 146.612, 18.625 147.162 C 20.618 147.712, 23.206 148.374, 24.375 148.633 C 25.544 148.891, 27.400 149.301, 28.500 149.543 C 29.600 149.785, 31.625 150.258, 33 150.593 C 34.375 150.928, 36.690 151.426, 38.145 151.699 C 39.844 152.018, 41.346 153.325, 42.343 155.348 C 45.582 161.928, 49 169.916, 49 170.908 C 49 172.196, 45.274 178.962, 43.399 181.079 C 42.629 181.947, 42 182.917, 42 183.234 C 42 183.551, 39.993 187.066, 37.540 191.045 C 33.844 197.039, 33.263 198.623, 34.150 200.281 C 34.739 201.381, 39.894 206.854, 45.606 212.442 C 57 223.591, 58.535 224.189, 63.629 219.468 C 65.094 218.111, 66.869 217, 67.575 217 C 68.280 217, 69.452 216.423, 70.179 215.717 C 72.938 213.038, 77.752 210.085, 78.363 210.696 C 78.713 211.047, 79 210.733, 79 210 C 79 209.267, 79.279 208.945, 79.619 209.286 C 79.960 209.626, 80.892 209.251, 81.690 208.452 C 83.684 206.459, 85.915 206.626, 91.623 209.195 C 94.305 210.403, 97.086 211.492, 97.802 211.615 C 99.743 211.948, 103.982 214.903, 104.125 216.023 C 104.194 216.560, 104.343 217.338, 104.457 217.750 C 105.439 221.316, 106.044 223.881, 106.403 226 C 106.637 227.375, 107.372 230.750, 108.038 233.500 C 108.704 236.250, 109.338 239.175, 109.448 240 C 110.208 245.728, 109.525 245.543, 127.906 245 C 137.220 244.725, 145.177 244.162, 145.587 243.750 C 145.997 243.337, 146.089 243, 145.791 243 C 145.492 243, 145.889 240.188, 146.673 236.750 C 147.457 233.313, 148.676 227.712, 149.382 224.303 C 150.089 220.895, 151.153 217.520, 151.748 216.803 C 152.343 216.087, 152.877 215.050, 152.934 214.500 C 152.991 213.950, 154.081 213.221, 155.355 212.880 C 156.630 212.539, 158.759 211.577, 160.086 210.742 C 165.370 207.417, 172.663 205.951, 174 207.946 C 174.275 208.356, 175.691 209.323, 177.146 210.096 C 184.579 214.040, 193 219.259, 193 219.919 C 193 220.330, 193.563 220.709, 194.250 220.761 C 194.938 220.813, 196.405 221.137, 197.511 221.482 C 199.111 221.980, 201.817 219.825, 210.761 210.928 C 216.942 204.779, 222 199.114, 222 198.339 C 222 196.887, 221.178 195.416, 215.104 186 C 213.153 182.975, 210.362 178.319, 208.903 175.653 C 206.364 171.013, 206.318 170.670, 207.839 167.653 C 208.713 165.919, 209.553 163.714, 209.707 162.754 C 210.199 159.676, 214.185 151.996, 215.021 152.513 C 215.466 152.788, 215.980 152.583, 216.165 152.059 C 216.349 151.535, 217.850 150.864, 219.500 150.569 C 221.150 150.274, 223.971 149.604, 225.768 149.081 C 227.566 148.557, 229.260 148.131, 229.533 148.132 C 229.805 148.134, 232.609 147.572, 235.764 146.884 C 238.919 146.195, 241.909 145.738, 242.408 145.868 C 242.908 145.999, 243.689 145.519, 244.143 144.803 C 245.165 143.191, 245.248 112.880, 244.235 111.500 C 243.504 110.506, 241.869 109.913, 239 109.602 C 235.067 109.177, 224 106.568, 223.998 106.067 C 223.997 105.755, 222.349 105.382, 220.336 105.238 C 218.323 105.094, 216.048 104.454, 215.280 103.817 C 214.056 102.801, 211.291 97.344, 210.559 94.500 C 210.079 92.633, 208.857 89.506, 207.927 87.764 C 206.647 85.366, 206.766 83, 208.167 83 C 208.808 83, 209.035 82.702, 208.671 82.338 C 208.307 81.974, 209.132 80.204, 210.505 78.405 C 211.877 76.606, 213 74.639, 213 74.035 C 213 73.431, 213.672 72.679, 214.494 72.364 C 215.316 72.048, 215.762 71.424, 215.485 70.976 C 215.208 70.528, 215.661 69.482, 216.491 68.652 C 217.321 67.822, 218 66.877, 218 66.552 C 218 66.226, 219.060 64.282, 220.355 62.230 C 221.650 60.179, 222.791 58.275, 222.891 58 C 223.215 57.103, 199.823 34, 198.590 34 C 197.931 34, 195.263 35.350, 192.661 37 C 190.059 38.650, 187.551 40, 187.088 40 C 186.624 40, 185.657 40.708, 184.939 41.573 C 183.477 43.335, 175.911 47.515, 174.750 47.202 C 174.338 47.091, 174 47.402, 174 47.893 C 174 49.799, 170.772 49.870, 166.729 48.053 C 164.403 47.007, 160.348 45.208, 157.717 44.055 C 153.423 42.173, 150.597 38.779, 151.188 36.215 C 151.279 35.822, 150.775 33.475, 150.068 31 C 149.361 28.525, 148.601 25.600, 148.378 24.500 C 148.156 23.400, 147.408 20.025, 146.716 17 L 145.458 11.500 129.073 11 C 118.865 10.688, 112.227 10.877, 111.463 11.500 M 123.500 77.812 C 118.935 78.306, 104 83.009, 104 83.952 C 104 84.409, 102.875 85.066, 101.500 85.411 C 100.125 85.756, 99 86.480, 99 87.019 C 99 87.559, 98.455 88, 97.788 88 C 96.152 88, 88 96.086, 88 97.708 C 88 98.419, 87.559 99, 87.019 99 C 86.480 99, 85.756 100.125, 85.411 101.500 C 85.066 102.875, 84.417 104, 83.969 104 C 83.521 104, 82.639 105.688, 82.008 107.750 C 81.377 109.813, 80.366 112.512, 79.762 113.748 C 79.158 114.985, 78.960 116.294, 79.323 116.656 C 79.686 117.019, 79.500 117.898, 78.909 118.610 C 76.815 121.132, 77.618 133.986, 80.448 143.250 C 81.918 148.063, 83.495 152, 83.952 152 C 84.409 152, 85.066 153.125, 85.411 154.500 C 85.756 155.875, 86.480 157, 87.019 157 C 87.559 157, 88 157.545, 88 158.212 C 88 159.848, 96.086 168, 97.708 168 C 98.419 168, 99 168.441, 99 168.981 C 99 169.520, 100.125 170.244, 101.500 170.589 C 102.875 170.934, 104 171.600, 104 172.068 C 104 172.537, 105.912 173.467, 108.250 174.135 C 110.588 174.803, 112.971 175.700, 113.546 176.128 C 114.860 177.106, 116.283 177.212, 128 177.212 C 139.717 177.212, 141.140 177.106, 142.454 176.128 C 143.029 175.700, 145.412 174.803, 147.750 174.135 C 150.088 173.467, 152 172.537, 152 172.068 C 152 171.600, 153.125 170.934, 154.500 170.589 C 155.875 170.244, 157 169.520, 157 168.981 C 157 168.441, 157.581 168, 158.292 168 C 159.914 168, 168 159.848, 168 158.212 C 168 157.545, 168.420 157, 168.933 157 C 169.446 157, 170.180 156.008, 170.565 154.797 C 170.949 153.585, 171.804 152.053, 172.464 151.393 C 173.124 150.733, 174.680 146.413, 175.922 141.792 C 177.692 135.204, 178.063 131.783, 177.642 125.945 C 177.347 121.850, 177.060 117.621, 177.006 116.546 C 176.951 115.471, 176.556 114.121, 176.128 113.546 C 175.700 112.971, 174.803 110.588, 174.135 108.250 C 173.467 105.912, 172.537 104, 172.068 104 C 171.600 104, 170.934 102.875, 170.589 101.500 C 170.244 100.125, 169.520 99, 168.981 99 C 168.441 99, 168 98.419, 168 97.708 C 168 96.086, 159.848 88, 158.212 88 C 157.545 88, 157 87.559, 157 87.019 C 157 86.480, 155.875 85.756, 154.500 85.411 C 153.125 85.066, 152 84.409, 152 83.952 C 152 82.769, 136.366 78.197, 131 77.811 C 128.525 77.633, 125.150 77.633, 123.500 77.812 M 114.750 91.521 C 111.588 92.808, 109 93.621, 109 93.327 C 109 92.859, 104.436 96.386, 100 100.283 C 97.596 102.395, 93.617 108.004, 93.380 109.613 C 93.261 110.427, 92.306 112.825, 91.258 114.943 C 88.502 120.515, 88.464 133.584, 91.184 140.411 C 92.299 143.210, 93.293 145.996, 93.393 146.602 C 93.565 147.653, 97.354 152.798, 100.313 156 C 103.630 159.589, 106.857 161.487, 116.144 165.309 C 120.980 167.300, 135.020 167.300, 139.856 165.309 C 147.009 162.365, 150.528 160.540, 152.439 158.783 C 153.505 157.802, 154.666 157, 155.020 157 C 155.885 157, 162.036 147.484, 164.392 142.502 C 166.999 136.990, 167.579 121.651, 165.382 116.318 C 161.476 106.834, 159.607 103.647, 156 100.313 C 152.798 97.354, 147.653 93.565, 146.602 93.393 C 145.996 93.293, 143.249 92.315, 140.498 91.218 C 133.259 88.333, 122.263 88.463, 114.750 91.521 M 0.417 129.500 C 0.418 139.950, 0.566 144.089, 0.746 138.698 C 0.926 133.307, 0.925 124.757, 0.744 119.698 C 0.563 114.639, 0.416 119.050, 0.417 129.500" stroke="none" fill="#540c8c" fill-rule="evenodd"/></svg>