<svg xmlns="http://www.w3.org/2000/svg" width="256" height="256" viewBox="0 0 256 256" version="1.1"><path d="M 62.500 43.558 C 60.636 45.141, 60.288 45.728, 61.582 45.107 C 63.441 44.216, 66.812 40.992, 65.872 41.005 C 65.668 41.008, 64.150 42.156, 62.500 43.558 M 190.918 42.344 C 192.349 44.126, 196 46.468, 196 45.603 C 196 45.346, 194.537 44.111, 192.750 42.857 C 190.444 41.240, 189.912 41.091, 190.918 42.344 M 42.857 63.250 C 41.240 65.556, 41.091 66.088, 42.344 65.082 C 44.126 63.651, 46.468 60, 45.603 60 C 45.346 60, 44.111 61.462, 42.857 63.250 M 210.910 61.832 C 211.450 62.840, 212.685 64.302, 213.656 65.082 C 214.909 66.088, 214.760 65.556, 213.143 63.250 C 210.674 59.729, 209.327 58.873, 210.910 61.832 M 59 117.378 C 59 117.585, 59.788 118.373, 60.750 119.128 C 62.336 120.371, 62.371 120.336, 61.128 118.750 C 59.821 117.084, 59 116.555, 59 117.378 M 194.872 118.750 C 193.629 120.336, 193.664 120.371, 195.250 119.128 C 196.213 118.373, 197 117.585, 197 117.378 C 197 116.555, 196.179 117.084, 194.872 118.750 M 21.158 174 C 21.158 175.375, 21.385 175.938, 21.662 175.250 C 21.940 174.563, 21.940 173.438, 21.662 172.750 C 21.385 172.063, 21.158 172.625, 21.158 174 M 234.158 174 C 234.158 175.375, 234.385 175.938, 234.662 175.250 C 234.940 174.563, 234.940 173.438, 234.662 172.750 C 234.385 172.063, 234.158 172.625, 234.158 174" stroke="none" fill="#4c0c8c" fill-rule="evenodd"/><path d="M 118.711 21.622 C 118.575 21.759, 116.221 22.166, 113.481 22.526 C 101.745 24.072, 97 25.157, 97 26.294 C 97 26.866, 96.738 27.072, 96.418 26.752 C 96.099 26.432, 94.211 26.850, 92.223 27.680 C 90.236 28.511, 87.736 29.358, 86.668 29.564 C 85.600 29.770, 84 30.595, 83.113 31.398 C 82.226 32.201, 81.275 32.824, 81 32.782 C 79.741 32.592, 76 34.221, 76 34.959 C 76 35.412, 74.875 36.066, 73.500 36.411 C 72.125 36.756, 71 37.480, 71 38.019 C 71 38.559, 70.321 39, 69.490 39 C 68.660 39, 67.197 39.937, 66.240 41.082 C 65.283 42.227, 62.107 44.766, 59.182 46.725 C 56.257 48.683, 51.982 52.732, 49.682 55.723 C 47.382 58.714, 44.037 62.769, 42.250 64.734 C 40.462 66.699, 39 68.913, 39 69.653 C 39 70.394, 38.559 71, 38.019 71 C 37.480 71, 36.756 72.125, 36.411 73.500 C 36.066 74.875, 35.412 76, 34.959 76 C 34.175 76, 33.119 78.352, 32.941 80.500 C 32.895 81.050, 32.201 82.226, 31.398 83.113 C 30.595 84, 29.770 85.600, 29.564 86.668 C 29.358 87.736, 28.495 90.272, 27.646 92.305 C 26.797 94.337, 26.359 96, 26.673 96 C 26.988 96, 26.744 96.604, 26.131 97.342 C 25.519 98.080, 24.819 100.217, 24.576 102.092 C 24.334 103.966, 24.070 105.500, 23.991 105.500 C 23.835 105.500, 23.398 107.531, 22.376 113 C 22.017 114.925, 21.580 129.975, 21.405 146.445 L 21.087 176.390 23.703 181.195 C 25.141 183.838, 26.664 186, 27.088 186 C 27.511 186, 28.549 186.691, 29.394 187.536 C 32.522 190.664, 37.438 191.824, 47.642 191.840 C 57.618 191.855, 57.816 191.809, 60.926 188.768 L 64.084 185.681 63.949 153.938 L 63.814 122.196 60.902 119.406 C 57.726 116.363, 57.063 116.131, 49.151 115.299 L 43.803 114.736 44.467 111.618 C 44.832 109.903, 45.282 107.825, 45.466 107 C 46.541 102.193, 52.285 89.162, 55.274 84.750 C 56.298 83.237, 56.796 82, 56.380 82 C 55.963 82, 56.495 81.155, 57.561 80.123 C 58.628 79.090, 60.400 76.960, 61.500 75.388 C 63.650 72.316, 76 59.680, 76 60.552 C 76 60.841, 76.898 60.241, 77.996 59.218 C 79.094 58.195, 81.907 56.353, 84.246 55.125 C 86.586 53.896, 89.850 52.049, 91.500 51.019 C 93.150 49.989, 95.287 49.113, 96.250 49.073 C 97.213 49.033, 98 48.625, 98 48.167 C 98 47.708, 98.563 47.309, 99.250 47.280 C 102.592 47.137, 107.537 45.790, 107.835 44.941 C 108.020 44.417, 108.602 44.254, 109.129 44.580 C 109.656 44.906, 110.630 44.741, 111.294 44.214 C 112.867 42.965, 143.133 42.965, 144.706 44.214 C 145.370 44.741, 146.344 44.906, 146.871 44.580 C 147.398 44.254, 147.980 44.417, 148.165 44.941 C 148.463 45.790, 153.408 47.137, 156.750 47.280 C 157.438 47.309, 158 47.708, 158 48.167 C 158 48.625, 158.787 49.033, 159.750 49.073 C 160.713 49.113, 162.850 49.989, 164.500 51.019 C 166.150 52.049, 169.414 53.896, 171.754 55.125 C 174.093 56.353, 176.906 58.195, 178.004 59.218 C 179.102 60.241, 180 60.841, 180 60.552 C 180 59.680, 192.350 72.316, 194.500 75.388 C 195.600 76.960, 197.372 79.090, 198.439 80.123 C 199.505 81.155, 200.037 82, 199.620 82 C 199.204 82, 199.702 83.237, 200.726 84.750 C 203.715 89.162, 209.459 102.193, 210.534 107 C 210.718 107.825, 211.168 109.903, 211.533 111.618 L 212.197 114.736 206.849 115.299 C 198.936 116.131, 198.275 116.363, 195.091 119.413 L 192.172 122.210 192.042 157.355 C 191.971 176.685, 191.551 194.090, 191.110 196.034 C 190.020 200.838, 185.890 207.876, 183.756 208.567 C 182.797 208.877, 181.255 209.889, 180.329 210.816 C 178.944 212.201, 176.108 212.561, 164.323 212.844 L 150 213.188 150 207.594 L 150 202 128 202 L 106 202 106 218.525 L 106 235.050 140.750 234.729 C 176.008 234.404, 183.146 233.954, 185.620 231.900 C 186.379 231.270, 187 231.105, 187 231.533 C 187 231.960, 187.787 231.658, 188.750 230.862 C 189.713 230.065, 191.822 228.758, 193.437 227.957 C 197.983 225.702, 205.259 217.914, 207.931 212.445 C 212.190 203.725, 212.778 201.702, 212.926 195.250 C 212.989 192.477, 213.364 192, 215.480 192 C 218.477 192, 226 189.110, 226 187.959 C 226 187.506, 226.833 186.870, 227.852 186.547 C 228.871 186.224, 230.876 183.806, 232.309 181.174 L 234.913 176.390 234.595 146.445 C 234.420 129.975, 233.983 114.925, 233.624 113 C 232.602 107.531, 232.165 105.500, 232.009 105.500 C 231.930 105.500, 231.666 103.966, 231.424 102.092 C 231.181 100.217, 230.481 98.080, 229.869 97.342 C 229.256 96.604, 229.012 96, 229.327 96 C 229.641 96, 229.203 94.337, 228.354 92.305 C 227.505 90.272, 226.642 87.736, 226.436 86.668 C 226.230 85.600, 225.261 83.840, 224.281 82.758 C 223.301 81.676, 222.679 80.725, 222.897 80.645 C 223.626 80.378, 221.877 76, 221.041 76 C 220.588 76, 219.934 74.875, 219.589 73.500 C 219.244 72.125, 218.520 71, 217.981 71 C 217.441 71, 217 70.394, 217 69.653 C 217 68.913, 215.537 66.699, 213.750 64.734 C 211.963 62.769, 208.618 58.714, 206.318 55.723 C 204.018 52.732, 199.743 48.683, 196.818 46.725 C 193.893 44.766, 190.717 42.227, 189.760 41.082 C 188.803 39.937, 187.340 39, 186.510 39 C 185.679 39, 185 38.559, 185 38.019 C 185 37.480, 183.875 36.756, 182.500 36.411 C 181.125 36.066, 180 35.412, 180 34.959 C 180 34.221, 176.259 32.592, 175 32.782 C 174.725 32.824, 173.774 32.201, 172.887 31.398 C 172 30.595, 170.400 29.770, 169.332 29.564 C 168.264 29.358, 165.764 28.511, 163.777 27.680 C 161.789 26.850, 159.901 26.432, 159.582 26.752 C 159.262 27.072, 159 26.866, 159 26.294 C 159 25.411, 155.865 24.513, 149 23.429 C 148.175 23.299, 145.475 22.876, 143 22.490 C 138.652 21.812, 119.216 21.117, 118.711 21.622" stroke="none" fill="#540c8c" fill-rule="evenodd"/></svg>